<svg width="1300" height="1300" viewBox="0 0 1300 1300" fill="none" xmlns="http://www.w3.org/2000/svg">
<mask id="mask0_32_1434" style="mask-type:alpha" maskUnits="userSpaceOnUse" x="0" y="0" width="1300" height="1300">
<path d="M650 1300C290.71 1300 0 1008.86 0 650C0 290.71 291.141 0 650 0C1009.29 0 1300 291.141 1300 650C1300.43 1009.29 1009.29 1300 650 1300Z" fill="#F7C0B5"/>
</mask>
<g mask="url(#mask0_32_1434)">
<path d="M1014 1197.33C1010.97 1199.5 1007.5 1201.67 1004.47 1203.83C1001 1206 997.967 1208.17 994.5 1209.9C991.467 1211.63 988.867 1213.37 985.833 1215.1C985.4 1215.53 984.967 1215.53 984.533 1215.97C974.567 1222.03 964.167 1227.67 953.767 1232.87C950.733 1234.6 947.267 1236.33 944.233 1237.63C944.233 1237.63 943.8 1238.07 943.367 1238.07C939.9 1239.8 936.433 1241.53 932.967 1243.27C926.033 1246.73 918.667 1249.77 911.733 1252.8C908.267 1254.53 904.367 1255.83 900.9 1257.13C897.433 1258.43 893.533 1260.17 890.067 1261.47C886.6 1262.77 882.7 1264.5 879.233 1265.8C879.233 1265.8 879.233 1265.8 878.8 1265.8C875.333 1267.1 871.433 1268.4 867.967 1269.7C860.167 1272.3 851.933 1274.9 844.133 1277.5C841.533 1278.37 838.5 1279.23 835.9 1280.1C827.667 1282.7 819.433 1284.87 811.2 1286.6C808.167 1287.47 805.133 1287.9 801.667 1288.77C793.867 1290.5 785.633 1292.23 777.833 1293.97C776.1 1294.4 774.8 1294.4 773.067 1294.83C770.467 1295.27 767.433 1295.7 764.833 1296.13C760.933 1296.57 757.467 1297.43 753.567 1297.87C751.833 1298.3 750.1 1298.3 748.367 1298.73C746.2 1299.17 743.6 1299.6 741 1299.6C734.067 1300.47 726.7 1301.33 719.767 1302.2C717.6 1302.63 715 1302.63 712.833 1303.07H712.4C709.367 1303.5 706.333 1303.5 703.3 1303.93C700.267 1304.37 697.233 1304.37 694.2 1304.37C692.467 1304.37 690.3 1304.8 688.567 1304.8C685.1 1304.8 682.067 1305.23 679.033 1305.23C674.7 1305.23 670.8 1305.67 666.467 1305.67C662.133 1305.67 658.234 1305.67 653.9 1305.67C650.867 1305.67 647.834 1305.67 644.8 1305.67C462.367 1303.07 297.7 1225.5 180.7 1102.43C180.7 1102.43 180.7 1102 180.267 1102C193.7 1075.57 243.534 1027.9 295.534 988.466C361.4 938.633 454.567 907.866 454.567 907.866C454.567 907.866 515.667 897.899 742.3 945.133C915.2 981.533 988.867 1129.3 1014 1197.33Z" fill="#F7D3B5"/>
<path d="M790.401 1065.17C781.301 1109.8 722.367 1136.23 623.134 1096.37C501.368 1046.97 454.568 907.865 454.568 907.865C448.068 808.199 432.901 722.832 432.901 722.832C573.734 710.699 740.134 875.365 740.134 875.365L759.201 956.832C760.934 963.765 764.401 969.832 769.601 974.165C778.701 989.765 796.467 1036.57 790.401 1065.17Z" fill="#F7D3B5"/>
<path d="M769.6 974.599C686.834 970.265 625.734 958.132 560.3 840.699C615.767 889.665 681.2 908.299 750.1 916.965L759.2 956.832C760.934 964.199 764.4 970.265 769.6 974.599Z" fill="#EFBDA5"/>
<path d="M940.767 452.432C948.567 488.832 952.467 518.299 931.233 615.366C910 712.432 950.733 809.499 848.467 898.332C779.567 958.132 659.1 969.399 562.9 903.966C530.4 881.866 500.5 851.099 476.234 810.799C457.167 779.166 435.067 749.266 410.367 721.966C376.134 684.699 334.967 609.732 355.334 477.132C388.267 261.332 601.9 236.632 728 260.466C854.1 284.299 919.533 356.232 940.767 452.432Z" fill="#F7D3B5"/>
<path d="M526.066 621.867C526.066 621.867 512.633 556.867 449.366 564.667C394.766 571.6 375.7 702.467 499.633 738.867" fill="#F7D3B5"/>
<path d="M495.734 679.5C495.734 679.5 480.134 669.533 481.867 652.2C484.467 631.833 481.867 619.266 472.334 615.366C448.5 605.4 443.734 633.133 444.6 636.6" stroke="#423232" stroke-width="13.4786" stroke-miterlimit="10" stroke-linecap="round" stroke-linejoin="round"/>
<path d="M826.366 721.533C826.366 721.533 842.832 722.399 858.432 703.766C867.099 693.366 874.466 680.366 869.699 676.466C864.932 672.133 786.499 684.266 781.299 694.666C776.099 705.066 806.432 721.533 826.366 721.533Z" fill="#EFBDA5"/>
<path d="M839.367 575.931C839.367 575.931 840.233 617.098 866.666 663.031C878.366 683.398 860.6 716.764 822.033 722.398" stroke="#423232" stroke-width="13.4786" stroke-miterlimit="10" stroke-linecap="round" stroke-linejoin="round"/>
<path opacity="0.42" d="M604.499 743.632C629.149 743.632 649.132 727.142 649.132 706.799C649.132 686.457 629.149 669.966 604.499 669.966C579.849 669.966 559.866 686.457 559.866 706.799C559.866 727.142 579.849 743.632 604.499 743.632Z" fill="#ED938A"/>
<path opacity="0.42" d="M924.3 670.832C923 695.099 923.433 718.932 921.7 742.765C902.633 738.432 888.767 724.132 888.767 707.232C888.767 689.032 903.933 674.299 924.3 670.832Z" fill="#ED938A"/>
<path d="M1057.78 1116.61C996.251 1037.31 900.917 1004.37 848.484 984.873C844.151 963.206 835.917 939.373 822.917 916.407C802.984 928.54 780.017 937.64 756.184 942.407L759.651 956.706C761.384 963.64 770.051 995.706 756.617 1036.87C745.351 1071.54 699.851 1087.14 622.717 1052.04C472.351 984.006 455.017 907.307 455.017 907.307C452.417 865.707 448.084 826.707 444.184 795.073C397.384 805.473 343.217 826.707 313.751 871.34C277.351 925.94 263.918 981.407 267.384 1025.61C204.118 1065.91 106.184 1127.01 74.1176 1236.21C32.5176 1378.34 39.4509 1465.44 39.4509 1465.44H1159.18C1157.88 1465.87 1141.42 1224.51 1057.78 1116.61Z" fill="#6060D8"/>
<path d="M388.283 974.472C388.283 974.472 414.717 1077.17 530.416 1148.24" stroke="#423232" stroke-width="13.4786" stroke-miterlimit="10" stroke-linecap="round" stroke-linejoin="round"/>
<path d="M848.05 984.873C848.05 984.873 878.817 1117.91 811.65 1179.01" stroke="#423232" stroke-width="13.4786" stroke-miterlimit="10" stroke-linecap="round" stroke-linejoin="round"/>
<path d="M639.183 1158.64C639.183 1158.64 616.65 1224.51 622.717 1270.01" stroke="#423232" stroke-width="13.4786" stroke-miterlimit="10" stroke-linecap="round" stroke-linejoin="round"/>
<path d="M777.418 1154.74C777.418 1154.74 794.318 1191.57 806.451 1250.07" stroke="#423232" stroke-width="13.4786" stroke-miterlimit="10" stroke-linecap="round" stroke-linejoin="round"/>
<path d="M266.517 1026.04C266.517 1026.04 302.05 1170.77 513.517 1213.24" stroke="#423232" stroke-width="13.4786" stroke-miterlimit="10" stroke-linecap="round" stroke-linejoin="round"/>
<path d="M626.617 1279.97L607.55 1278.24C600.617 1277.37 595.417 1270.87 596.717 1263.94L603.217 1231.44C604.95 1222.34 613.617 1215.84 622.717 1217.14C631.817 1218.01 639.183 1225.81 639.183 1235.34L639.617 1268.71C639.617 1275.21 633.55 1280.84 626.617 1279.97Z" fill="white"/>
<path d="M825.517 1260.04L807.317 1266.54C800.383 1269.14 793.017 1264.81 791.717 1257.87L783.917 1225.81C781.75 1216.71 786.517 1207.61 795.617 1204.14C804.283 1201.11 814.25 1205.01 818.15 1213.24L832.45 1243.14C835.483 1249.64 832.45 1257.44 825.517 1260.04Z" fill="white"/>
<path d="M1016.62 1250.07C1016.62 1250.07 1040.88 1386.14 1031.35 1465.87" stroke="#544D4D" stroke-width="13.4786" stroke-miterlimit="10" stroke-linecap="round" stroke-linejoin="round"/>
<path d="M683.942 619.44C673.542 619.006 665.742 610.34 666.609 599.94L667.042 587.806C667.475 577.406 676.142 569.606 686.542 570.473C696.942 570.906 704.742 579.573 703.875 589.973L703.442 602.106C703.009 612.073 694.342 619.873 683.942 619.44Z" fill="#423232"/>
<path d="M866.375 625.939C856.842 625.505 849.475 617.272 849.909 607.739L850.342 596.472C850.775 586.939 859.009 579.572 868.542 580.005C878.075 580.439 885.442 588.672 885.009 598.205L884.575 609.472C884.142 619.005 875.909 626.372 866.375 625.939Z" fill="#423232"/>
<path d="M725.977 594.305C725.977 594.305 714.71 578.271 695.21 575.238C679.177 572.638 661.41 580.438 658.81 589.538" stroke="#423232" stroke-width="13.4786" stroke-miterlimit="10" stroke-linecap="round" stroke-linejoin="round"/>
<path d="M853.811 598.207C853.811 598.207 853.811 584.34 873.744 584.34C890.211 584.34 897.144 599.507 897.144 599.507" stroke="#423232" stroke-width="13.4786" stroke-miterlimit="10" stroke-linecap="round" stroke-linejoin="round"/>
<path d="M743.743 524.54C752.843 527.573 761.943 519.34 760.21 509.373C759.343 504.173 757.176 498.973 752.843 495.073C739.843 483.373 686.11 472.973 653.61 488.14C625.01 502.006 702.143 510.673 743.743 524.54Z" fill="#423232"/>
<path d="M873.308 531.473C865.941 534.073 858.141 526.273 859.441 517.173C859.874 512.406 861.608 507.64 865.074 504.173C875.474 493.773 911.008 485.54 933.541 501.573C953.041 515.006 907.108 518.906 873.308 531.473Z" fill="#423232"/>
<path d="M804.158 772.845C804.607 780.033 799.216 792.613 789.331 801.599C738.562 770.598 715.649 786.772 715.649 786.772C697.677 759.366 701.721 722.075 745.301 750.38C775.853 769.7 794.274 772.845 804.158 772.845Z" fill="#423232"/>
<path d="M789.331 801.6C778.548 811.035 762.374 816.875 740.359 807.89C730.025 803.846 721.938 795.759 715.648 786.773C715.648 786.773 738.562 770.599 789.331 801.6Z" fill="#FE9DAB"/>
<path d="M812.694 771.047C812.694 771.047 793.824 781.381 745.301 750.38C687.343 713.089 699.025 791.265 739.91 807.889C782.592 825.411 804.607 787.222 804.158 772.845" stroke="#423232" stroke-width="13.4786" stroke-miterlimit="10" stroke-linecap="round" stroke-linejoin="round"/>
<path d="M715.648 786.773C715.648 786.773 738.562 770.599 789.331 801.6" stroke="#423232" stroke-width="13.4786" stroke-miterlimit="10" stroke-linecap="round" stroke-linejoin="round"/>
<path d="M974.205 347.828C943.438 459.194 854.171 440.561 770.538 410.228C659.172 369.494 561.238 402.428 560.805 502.961C559.938 650.294 523.105 605.661 519.205 600.028C509.672 581.828 489.305 559.294 450.738 564.061C400.038 570.561 380.105 682.361 474.572 728.294C491.038 811.928 445.972 804.128 445.972 804.128C430.805 742.594 303.405 611.728 302.972 525.494C302.972 409.361 361.472 376.428 361.472 376.428C363.205 295.395 447.705 206.128 589.838 209.161C731.972 211.761 819.071 207.861 846.805 174.495C874.538 140.261 1004.97 236.461 974.205 347.828Z" fill="#423232"/>
<path d="M977.672 481.726C973.338 509.893 961.205 531.56 944.305 547.593C950.805 500.36 947.338 477.826 941.705 451.393C929.572 397.226 903.572 350.426 860.238 315.76C881.905 314.026 904.005 318.793 923.938 331.36C923.938 330.926 995.438 359.96 977.672 481.726Z" fill="#423232"/>
<path d="M477.159 636.126C477.159 636.126 442.492 630.926 445.092 679.46C446.392 704.16 446.392 717.593 445.959 724.526C445.526 729.293 448.559 733.626 452.892 735.36C458.092 737.526 463.726 735.36 466.326 730.16C470.226 723.226 474.559 713.693 474.559 705.893C474.559 692.893 488.426 681.193 488.426 681.193C488.426 681.193 475.859 670.36 477.159 636.126Z" fill="white"/>
<path d="M582.026 1471.59C578.559 1467.69 442.493 1234.99 462.859 1147.46C476.726 1087.22 458.526 1017.89 442.493 956.792C435.993 931.658 429.926 908.258 426.459 887.458C420.393 851.492 424.726 817.258 439.459 785.625C455.493 750.092 452.893 719.325 452.893 718.892L461.559 718.025C461.559 719.325 464.159 751.825 447.259 789.092C433.393 818.992 429.493 851.925 435.126 886.158C438.593 906.525 444.659 929.925 451.159 955.058C467.626 1017.02 485.826 1087.66 471.526 1150.06C452.459 1233.26 588.093 1465.96 588.959 1466.82L582.026 1471.59Z" fill="white"/>
<path d="M446.392 704.592C446.825 714.125 446.392 720.625 446.392 724.525C445.958 729.292 448.992 733.625 453.325 735.358C458.525 737.525 464.158 735.358 466.758 730.158C470.658 723.225 474.992 713.692 474.992 705.892C474.992 705.458 474.992 704.592 474.992 704.158C465.892 707.625 455.492 710.225 446.392 704.592Z" fill="#E5E5E5"/>
<path d="M854.157 992.759C851.124 1012.69 850.691 1044.33 849.824 1081.16C848.524 1152.23 806.491 1429.13 786.124 1472.89L778.324 1469.43C797.824 1426.96 839.858 1151.36 841.157 1081.16C842.024 1044.33 842.457 1012.26 845.491 991.459C851.991 947.692 847.224 914.759 844.624 900.892C845.924 899.592 847.224 898.725 848.524 897.425C849.824 896.559 850.691 895.259 851.991 894.392C854.591 905.659 861.957 941.625 854.157 992.759Z" fill="white"/>
</g>
</svg>
