<svg width="300" height="279" viewBox="0 0 300 279" fill="none" xmlns="http://www.w3.org/2000/svg">
<line x1="148.655" y1="131.422" x2="161.394" y2="121.286" stroke="#EDEDED" stroke-width="2"/>
<line x1="144.52" y1="138.041" x2="157.259" y2="127.905" stroke="#EDEDED" stroke-width="2"/>
<line x1="158.153" y1="127.092" x2="160.635" y2="125.024" stroke="#EDEDED" stroke-width="2"/>
<rect x="110.149" y="110.037" width="75.3614" height="53.8491" stroke="#EDEDED" stroke-width="2"/>
<rect x="128.145" y="119.139" width="39.1629" height="21.9944" stroke="#EDEDED" stroke-width="2"/>
<rect x="130.835" y="122.034" width="33.7848" height="16.2027" stroke="#EDEDED" stroke-width="2"/>
<path d="M121.622 149.559C122.802 151.623 127.031 155.13 135.005 155.13V153.13C127.59 153.13 124.11 149.881 123.359 148.566L121.622 149.559ZM135.005 155.13C142.98 155.13 147.828 151.63 149.344 149.675L147.763 148.45C146.66 149.873 142.419 153.13 135.005 153.13V155.13Z" fill="#EDEDED"/>
<path d="M147.79 149.455C148.969 151.519 153.198 155.027 161.173 155.027V153.027C153.757 153.027 150.277 149.777 149.526 148.463L147.79 149.455ZM161.173 155.027C169.148 155.027 173.995 151.527 175.511 149.572L173.931 148.346C172.827 149.77 168.587 153.027 161.173 153.027V155.027Z" fill="#EDEDED"/>
<line x1="122.767" y1="149.786" x2="122.767" y2="163.438" stroke="#EDEDED" stroke-width="2"/>
<line x1="148.83" y1="149.786" x2="148.83" y2="163.438" stroke="#EDEDED" stroke-width="2"/>
<line x1="174.892" y1="149.786" x2="174.892" y2="163.438" stroke="#EDEDED" stroke-width="2"/>
<circle cx="122.49" cy="149.063" r="1.55137" fill="#EDEDED"/>
<circle cx="148.555" cy="149.063" r="1.55137" fill="#EDEDED"/>
<circle cx="174.618" cy="149.063" r="1.55137" fill="#EDEDED"/>
<line y1="-0.5" x2="11.8238" y2="-0.5" transform="matrix(0.782525 -0.622619 0.622605 0.782537 256.04 217.87)" stroke="#EDEDED"/>
<line x1="252.723" y1="222.286" x2="261.975" y2="214.924" stroke="#EDEDED"/>
<line x1="262.631" y1="214.33" x2="264.433" y2="212.828" stroke="#EDEDED"/>
<rect x="227.393" y="201.543" width="55.1888" height="39.5641" stroke="#EDEDED"/>
<rect x="240.464" y="208.153" width="28.8973" height="16.4275" stroke="#EDEDED"/>
<rect x="242.417" y="210.257" width="24.9911" height="12.2209" stroke="#EDEDED"/>
<path d="M236.149 230.362C236.958 231.776 239.944 234.295 245.673 234.295V233.295C240.224 233.295 237.612 230.905 237.018 229.866L236.149 230.362ZM245.673 234.295C251.402 234.295 254.854 231.78 255.909 230.42L255.118 229.808C254.27 230.902 251.121 233.295 245.673 233.295V234.295Z" fill="#EDEDED"/>
<path d="M255.155 230.287C255.963 231.701 258.95 234.22 264.679 234.22V233.22C259.23 233.22 256.617 230.83 256.023 229.791L255.155 230.287ZM264.679 234.22C270.408 234.22 273.86 231.705 274.914 230.345L274.124 229.732C273.276 230.826 270.127 233.22 264.679 233.22V234.22Z" fill="#EDEDED"/>
<line x1="236.557" y1="230.64" x2="236.557" y2="240.555" stroke="#EDEDED"/>
<line x1="255.487" y1="230.64" x2="255.487" y2="240.555" stroke="#EDEDED"/>
<line x1="274.417" y1="230.64" x2="274.417" y2="240.555" stroke="#EDEDED"/>
<circle cx="236.583" cy="230.114" r="1.12678" fill="#EDEDED"/>
<circle cx="255.513" cy="230.114" r="1.12678" fill="#EDEDED"/>
<circle cx="274.444" cy="230.114" r="1.12678" fill="#EDEDED"/>
<line y1="-0.5" x2="11.8238" y2="-0.5" transform="matrix(0.782526 -0.622617 0.622606 0.782536 46.2358 45.3206)" stroke="#EDEDED"/>
<line x1="42.9192" y1="49.7369" x2="52.1717" y2="42.3753" stroke="#EDEDED"/>
<line y1="-0.5" x2="2.34678" y2="-0.5" transform="matrix(0.76825 -0.64015 0.640219 0.768193 53.147 42.1654)" stroke="#EDEDED"/>
<rect x="17.5894" y="28.9939" width="55.1888" height="39.5641" stroke="#EDEDED"/>
<rect x="30.6602" y="35.6044" width="28.8973" height="16.4275" stroke="#EDEDED"/>
<rect x="32.6128" y="37.7078" width="24.9911" height="12.2209" stroke="#EDEDED"/>
<path d="M26.3457 57.813C27.1539 59.2274 30.1406 61.7458 35.8692 61.7458V60.7458C30.42 60.7458 27.8079 58.3564 27.2139 57.3169L26.3457 57.813ZM35.8692 61.7458C41.5983 61.7458 45.0502 59.2312 46.1048 57.8714L45.3146 57.2585C44.4662 58.3525 41.3177 60.7458 35.8692 60.7458V61.7458Z" fill="#EDEDED"/>
<path d="M45.3515 57.7378C46.1598 59.1522 49.1465 61.6706 54.875 61.6706V60.6706C49.4259 60.6706 46.8138 58.2812 46.2198 57.2417L45.3515 57.7378ZM54.875 61.6706C60.6042 61.6706 64.0561 59.156 65.1107 57.7962L64.3205 57.1833C63.4721 58.2773 60.3235 60.6706 54.875 60.6706V61.6706Z" fill="#EDEDED"/>
<line x1="26.7529" y1="58.0906" x2="26.7529" y2="68.0062" stroke="#EDEDED"/>
<line x1="45.6831" y1="58.0906" x2="45.6831" y2="68.0062" stroke="#EDEDED"/>
<line x1="64.6133" y1="58.0906" x2="64.6133" y2="68.0062" stroke="#EDEDED"/>
<circle cx="26.7796" cy="57.5648" r="1.12678" fill="#EDEDED"/>
<circle cx="45.7093" cy="57.5648" r="1.12678" fill="#EDEDED"/>
<circle cx="64.6404" cy="57.5648" r="1.12678" fill="#EDEDED"/>
<circle cx="147.547" cy="137.033" r="60.5327" stroke="#EDEDED" stroke-width="3"/>
<path d="M298.5 221.495C298.5 245.431 278.941 264.855 254.79 264.855C230.638 264.855 211.08 245.431 211.08 221.495C211.08 197.559 230.638 178.135 254.79 178.135C278.941 178.135 298.5 197.559 298.5 221.495Z" stroke="#EDEDED" stroke-width="3"/>
<circle cx="45.2103" cy="48.7149" r="43.7103" stroke="#EDEDED" stroke-width="3"/>
<circle cx="150" cy="28.7383" r="27.2383" stroke="#EDEDED" stroke-width="3"/>
<circle cx="228.855" cy="71.8458" r="17.7757" stroke="#EDEDED" stroke-width="3"/>
<circle cx="61.3314" cy="191.005" r="17.7757" stroke="#EDEDED" stroke-width="3"/>
<circle cx="140.888" cy="250.234" r="27.2383" stroke="#EDEDED" stroke-width="3"/>
<line x1="76.0683" y1="81.0439" x2="99.6804" y2="98.9135" stroke="#EDEDED" stroke-width="3"/>
<line x1="148.696" y1="56.7524" x2="148.995" y2="76.0599" stroke="#EDEDED" stroke-width="3"/>
<line x1="142.985" y1="197.646" x2="141.366" y2="222.859" stroke="#EDEDED" stroke-width="3"/>
<line x1="95.51" y1="168.822" x2="75.4881" y2="180.167" stroke="#EDEDED" stroke-width="3"/>
<line y1="-1.5" x2="32.1593" y2="-1.5" transform="matrix(-0.792626 -0.609709 0.609713 -0.792622 220.262 195.965)" stroke="#EDEDED" stroke-width="3"/>
<line x1="215.983" y1="83.3996" x2="195.832" y2="99.9344" stroke="#EDEDED" stroke-width="3"/>
</svg>
