<svg width="300" height="217" viewBox="0 0 300 217" fill="none" xmlns="http://www.w3.org/2000/svg">
<line x1="154.681" y1="88.6658" x2="204.081" y2="49.361" stroke="#EDEDED" stroke-width="3"/>
<line x1="138.638" y1="114.334" x2="188.039" y2="75.0294" stroke="#EDEDED" stroke-width="3"/>
<line x1="191.553" y1="71.8423" x2="201.179" y2="63.8209" stroke="#EDEDED" stroke-width="3"/>
<rect x="1.5" y="1.5" width="297" height="213.578" stroke="#EDEDED" stroke-width="3"/>
<rect x="71.2861" y="36.7941" width="156.626" height="90.0481" stroke="#EDEDED" stroke-width="3"/>
<rect x="81.7139" y="48.0242" width="135.77" height="67.5882" stroke="#EDEDED" stroke-width="3"/>
<path d="M50.4354 155.958C54.5001 163.071 70.0085 176.366 100.267 176.366V173.366C70.8467 173.366 56.4621 160.458 53.0402 154.47L50.4354 155.958ZM100.267 176.366C130.528 176.366 148.603 163.083 153.993 156.133L151.622 154.295C146.851 160.447 129.686 173.366 100.267 173.366V176.366Z" fill="#EDEDED"/>
<path d="M151.906 155.557C155.971 162.67 171.479 175.965 201.738 175.965V172.965C172.317 172.965 157.933 160.057 154.511 154.069L151.906 155.557ZM201.738 175.965C231.998 175.965 250.074 162.682 255.463 155.732L253.093 153.894C248.322 160.045 231.157 172.965 201.738 172.965V175.965Z" fill="#EDEDED"/>
<line x1="50.4307" y1="158.021" x2="50.4307" y2="210.963" stroke="#EDEDED" stroke-width="3"/>
<line x1="151.5" y1="158.021" x2="151.5" y2="210.963" stroke="#EDEDED" stroke-width="3"/>
<line x1="252.569" y1="158.021" x2="252.569" y2="210.963" stroke="#EDEDED" stroke-width="3"/>
<circle cx="51.7377" cy="155.214" r="6.01604" fill="#EDEDED"/>
<circle cx="152.808" cy="155.214" r="6.01604" fill="#EDEDED"/>
<circle cx="253.877" cy="155.214" r="6.01604" fill="#EDEDED"/>
</svg>
