<svg width="1300" height="1300" viewBox="0 0 1300 1300" fill="none" xmlns="http://www.w3.org/2000/svg">
<mask id="mask0_32_1464" style="mask-type:alpha" maskUnits="userSpaceOnUse" x="0" y="0" width="1301" height="1300">
<path d="M650 1300C290.71 1300 0 1008.86 0 650C0 290.71 291.141 0 650 0C1009.29 0 1300 291.141 1300 650C1300.43 1009.29 1009.29 1300 650 1300Z" fill="#F7C0B5"/>
</mask>
<g mask="url(#mask0_32_1464)">
<path d="M1013.13 1197.32C1010.1 1199.48 1006.63 1201.65 1003.6 1203.82C1000.13 1205.98 997.098 1208.15 993.632 1209.88C990.598 1211.62 987.998 1213.35 984.965 1215.08C984.532 1215.52 984.098 1215.52 983.665 1215.95C973.698 1222.02 963.298 1227.65 952.898 1232.85C949.865 1234.58 946.398 1236.32 943.365 1237.62C943.365 1237.62 942.932 1238.05 942.498 1238.05C939.032 1239.78 935.565 1241.52 932.098 1243.25C925.165 1246.72 917.798 1249.75 910.865 1252.78C907.398 1254.52 903.498 1255.82 900.032 1257.12C896.565 1258.42 892.665 1260.15 889.198 1261.45C885.732 1262.75 881.832 1264.48 878.365 1265.78C878.365 1265.78 878.365 1265.78 877.932 1265.78C874.465 1267.08 870.565 1268.38 867.098 1269.68C859.298 1272.28 851.065 1274.88 843.265 1277.48C840.665 1278.35 837.632 1279.22 835.032 1280.08C826.798 1282.68 818.565 1284.85 810.332 1286.58C807.298 1287.45 804.265 1287.88 800.798 1288.75C792.998 1290.48 784.765 1292.22 776.965 1293.95C775.232 1294.38 773.932 1294.38 772.198 1294.82C769.598 1295.25 766.565 1295.68 763.965 1296.12C760.065 1296.55 756.598 1297.42 752.698 1297.85C750.965 1298.28 749.232 1298.28 747.498 1298.72C745.332 1299.15 742.732 1299.58 740.132 1299.58C733.198 1300.45 725.832 1301.32 718.898 1302.18C716.732 1302.62 714.132 1302.62 711.965 1303.05H711.532C708.498 1303.48 705.465 1303.48 702.432 1303.92C699.398 1304.35 696.365 1304.35 693.332 1304.35C691.598 1304.35 689.432 1304.78 687.698 1304.78C684.232 1304.78 681.198 1305.22 678.165 1305.22C673.832 1305.22 669.932 1305.65 665.598 1305.65C661.265 1305.65 657.365 1305.65 653.032 1305.65C649.998 1305.65 646.965 1305.65 643.932 1305.65C461.498 1303.05 296.832 1225.48 179.832 1102.42C179.832 1102.42 179.832 1101.98 179.398 1101.98C192.832 1075.55 242.665 1027.88 294.665 988.45C360.532 938.617 453.698 907.85 453.698 907.85C453.698 907.85 514.798 897.884 741.432 945.117C914.332 981.517 987.998 1129.28 1013.13 1197.32Z" fill="#FEE4BF"/>
<path d="M789.532 1065.15C780.432 1109.78 721.499 1136.22 622.266 1096.35C500.499 1046.95 453.699 907.85 453.699 907.85C447.199 808.183 432.032 722.816 432.032 722.816C572.866 710.683 739.266 875.35 739.266 875.35L758.332 956.816C760.066 963.75 763.532 969.816 768.732 974.15C777.832 989.75 795.599 1036.55 789.532 1065.15Z" fill="#FEE4BF"/>
<path d="M768.732 974.584C685.965 970.25 624.865 958.117 559.432 840.684C614.898 889.65 680.332 908.284 749.232 916.95L758.332 956.817C760.065 964.184 763.532 970.25 768.732 974.584Z" fill="#EFBD9C"/>
<path d="M939.898 452.417C947.698 488.817 951.598 518.283 930.365 615.35C909.132 712.417 949.865 809.483 847.598 898.317C778.698 958.117 658.232 969.383 562.032 903.95C529.532 881.85 499.632 851.083 475.365 810.783C456.298 779.15 434.198 749.25 409.498 721.95C375.265 684.683 334.098 609.717 354.465 477.117C387.398 261.317 601.032 236.617 727.132 260.45C853.232 284.284 918.665 356.217 939.898 452.417Z" fill="#FEE4BF"/>
<path d="M525.198 621.851C525.198 621.851 511.764 556.851 448.498 564.651C393.898 571.585 374.831 702.451 498.764 738.851" fill="#FEE4BF"/>
<path d="M494.865 679.484C494.865 679.484 479.265 669.517 480.998 652.184C483.598 631.817 480.998 619.251 471.465 615.351C447.632 605.384 442.865 633.117 443.732 636.584" stroke="#423232" stroke-width="13.4786" stroke-miterlimit="10" stroke-linecap="round" stroke-linejoin="round"/>
<path d="M825.498 721.518C825.498 721.518 841.964 722.384 857.564 703.751C866.231 693.351 873.598 680.351 868.831 676.451C864.064 672.118 785.631 684.251 780.431 694.651C775.231 705.051 805.564 721.518 825.498 721.518Z" fill="#EFBD9C"/>
<path d="M838.498 575.916C838.498 575.916 839.365 617.083 865.798 663.016C877.498 683.383 859.732 716.749 821.165 722.383" stroke="#423232" stroke-width="13.4786" stroke-miterlimit="10" stroke-linecap="round" stroke-linejoin="round"/>
<path d="M906.531 816.417C906.531 816.851 906.531 816.851 906.531 816.417C906.097 816.851 906.097 816.851 906.531 816.417C895.697 844.584 877.931 871.451 847.597 897.884C778.697 957.684 658.231 968.951 562.031 903.517C551.197 896.151 540.797 887.917 530.831 878.817C523.897 870.151 517.831 861.051 512.631 851.517C481.431 793.017 494.864 738.417 494.864 738.417C494.864 738.417 512.631 738.851 533.864 780.451C551.631 815.117 620.097 813.817 648.264 748.817C679.464 676.451 757.464 708.084 775.231 715.017C792.997 721.951 820.731 721.951 820.731 721.951C890.931 721.084 869.697 768.317 877.064 794.317C887.897 829.851 906.531 816.417 906.531 816.417Z" fill="#423232"/>
<path d="M1158.82 1466.34H63.3555C63.3555 1466.34 68.1221 1264.41 135.722 1121.84C185.555 1016.11 313.822 955.873 403.089 925.106C423.022 918.173 441.222 912.973 455.955 909.073C460.722 922.073 508.822 1049.47 624.089 1096.27C723.322 1136.57 782.255 1109.71 791.355 1065.07C796.989 1036.47 779.222 989.673 770.122 974.506C764.922 970.173 761.455 963.673 759.722 957.173L756.255 942.873C764.055 941.14 771.422 938.973 779.222 936.807C783.122 937.673 787.022 938.54 790.922 939.407C846.822 952.84 929.589 985.34 1026.66 1067.24C1138.89 1160.84 1158.82 1466.34 1158.82 1466.34Z" fill="#FFDE55"/>
<path d="M806.956 1182.94C791.789 1187.27 738.923 1132.24 728.089 1122.71C718.123 1133.97 647.923 1213.27 613.256 1208.07C575.123 1202.44 477.623 1137.01 428.223 1034.31C400.923 977.973 400.056 943.739 403.089 925.106C404.389 916.439 406.989 910.806 408.289 907.773C412.623 897.806 443.823 859.239 451.623 859.673V860.106C455.523 901.706 468.956 942.006 491.489 977.106C519.223 1020.01 562.989 1071.57 624.089 1096.27C723.323 1136.57 774.889 1096.71 783.556 1052.07C789.189 1023.47 779.223 989.673 770.123 974.506C764.923 970.173 761.456 963.673 759.723 957.173L756.256 942.873C764.056 941.139 771.423 938.973 779.223 936.806C781.389 935.939 783.989 935.506 786.156 934.639C787.456 936.373 789.189 938.106 790.489 939.839C808.689 960.639 827.756 989.239 838.156 1037.77C855.923 1115.34 823.856 1177.74 806.956 1182.94Z" fill="#423232"/>
<path d="M726.791 1120.11C726.791 1120.11 758.424 1138.31 757.557 1153.47C756.691 1168.64 765.791 1216.74 765.791 1216.74" stroke="#423232" stroke-width="13.4786" stroke-miterlimit="10" stroke-linecap="round" stroke-linejoin="round"/>
<path d="M726.355 1177.74C732.099 1177.74 736.755 1173.08 736.755 1167.34C736.755 1161.6 732.099 1156.94 726.355 1156.94C720.611 1156.94 715.955 1161.6 715.955 1167.34C715.955 1173.08 720.611 1177.74 726.355 1177.74Z" fill="#423232"/>
<path d="M730.256 1218.47C736 1218.47 740.656 1213.82 740.656 1208.07C740.656 1202.33 736 1197.67 730.256 1197.67C724.512 1197.67 719.856 1202.33 719.856 1208.07C719.856 1213.82 724.512 1218.47 730.256 1218.47Z" fill="#423232"/>
<path d="M277.856 1466.34L258.356 1305.57" stroke="#544D4D" stroke-width="13.4786" stroke-miterlimit="10" stroke-linecap="round" stroke-linejoin="round"/>
<path d="M1034.46 1250.97C1034.46 1250.97 1021.46 1282.61 1025.36 1314.24C1029.26 1345.87 1040.52 1392.24 1024.49 1466.34" stroke="#544D4D" stroke-width="13.4786" stroke-miterlimit="10" stroke-linecap="round" stroke-linejoin="round"/>
<path d="M715.185 586.763C715.185 586.763 684.851 587.196 654.084 564.229" stroke="#423232" stroke-width="13.4786" stroke-miterlimit="10" stroke-linecap="round" stroke-linejoin="round"/>
<path d="M843.884 593.696C843.884 593.696 875.084 588.063 884.184 575.929" stroke="#423232" stroke-width="13.4786" stroke-miterlimit="10" stroke-linecap="round" stroke-linejoin="round"/>
<path d="M735.985 553.397C744.219 558.164 754.619 551.664 755.052 541.697C755.052 536.497 754.185 530.864 750.719 526.097C740.319 512.231 689.619 490.997 654.519 500.097C624.185 507.897 698.285 531.731 735.985 553.397Z" fill="#423232"/>
<path d="M869.02 558.596C862.953 563.362 852.987 557.729 851.687 548.629C850.82 543.862 851.253 538.662 853.42 534.329C860.353 521.329 892.42 503.562 918.42 512.229C940.953 520.462 898.053 537.362 869.02 558.596Z" fill="#423232"/>
<path d="M666.218 572.031C662.751 575.064 660.585 579.831 660.151 584.597L659.718 596.731C659.285 607.131 667.085 615.797 677.051 616.231C687.451 616.664 696.118 608.864 696.551 598.897L696.985 586.764C696.985 586.331 696.985 585.897 696.985 585.464C685.718 584.597 675.751 579.831 666.218 572.031Z" fill="#423232"/>
<path d="M843.885 592.831C843.885 593.265 843.885 593.265 843.885 593.698L843.452 604.964C843.019 614.498 850.386 622.731 859.919 623.165C869.452 623.598 877.686 616.231 878.119 606.698L878.552 595.431C878.986 591.098 877.252 587.198 875.086 584.165C865.552 589.798 855.152 591.098 843.885 592.831Z" fill="#423232"/>
<path d="M804.157 772.845C804.606 780.034 799.214 792.614 789.33 801.599C738.561 770.599 715.647 786.773 715.647 786.773C697.676 759.367 701.719 722.076 745.3 750.381C775.851 769.7 794.272 772.845 804.157 772.845Z" fill="#423232"/>
<path d="M789.331 801.6C778.549 811.035 762.374 816.876 740.359 807.89C730.026 803.847 721.938 795.759 715.648 786.774C715.648 786.774 738.562 770.599 789.331 801.6Z" fill="#FE9DAB"/>
<path d="M812.695 771.048C812.695 771.048 793.825 781.382 745.302 750.381C687.344 713.09 699.025 791.266 739.91 807.889C782.592 825.412 804.608 787.222 804.158 772.845" stroke="#423232" stroke-width="13.4786" stroke-miterlimit="10" stroke-linecap="round" stroke-linejoin="round"/>
<path d="M715.648 786.774C715.648 786.774 738.562 770.599 789.331 801.6" stroke="#423232" stroke-width="13.4786" stroke-miterlimit="10" stroke-linecap="round" stroke-linejoin="round"/>
</g>
</svg>
