<svg width="216" height="43" viewBox="0 0 216 43" fill="none" xmlns="http://www.w3.org/2000/svg">
<path d="M23.0655 33.7787L22.9979 22.7967L17.8572 31.6098H14.3398L9.19913 23.1754V33.7787H1.92773V9.6803H8.4889L16.2 22.5213L23.7081 9.6803H30.2693L30.3369 33.7787H23.0655ZM45.5257 34.3295C41.8956 34.3295 39.066 33.3311 37.0367 31.3344C35.0075 29.3377 33.9929 26.5377 33.9929 22.9344V9.6803H41.9745V22.6934C41.9745 24.4606 42.2789 25.7459 42.8877 26.5492C43.519 27.3524 44.4209 27.7541 45.5933 27.7541C46.7658 27.7541 47.6564 27.3524 48.2651 26.5492C48.8965 25.7459 49.2121 24.4606 49.2121 22.6934V9.6803H57.0585V22.9344C57.0585 26.5377 56.0438 29.3377 54.0146 31.3344C51.9854 33.3311 49.1557 34.3295 45.5257 34.3295ZM69.5443 34.3295C67.5827 34.3295 65.6662 34.1115 63.7948 33.6754C61.946 33.2164 60.424 32.6082 59.229 31.8508L61.7994 25.9295C62.9268 26.5951 64.1894 27.1344 65.5873 27.5475C66.9852 27.9377 68.3268 28.1328 69.6119 28.1328C70.7167 28.1328 71.5059 28.0295 71.9794 27.8229C72.4529 27.5934 72.6896 27.2606 72.6896 26.8246C72.6896 26.3196 72.3739 25.941 71.7426 25.6885C71.1339 25.436 70.1192 25.1606 68.6988 24.8623C66.8725 24.4721 65.3506 24.059 64.133 23.6229C62.9155 23.1639 61.8558 22.4295 60.9539 21.4196C60.052 20.3869 59.6011 18.9983 59.6011 17.2541C59.6011 15.7393 60.0182 14.3623 60.8524 13.1229C61.6867 11.8836 62.9268 10.9082 64.5727 10.1967C66.2412 9.48522 68.2591 9.12948 70.6265 9.12948C72.2499 9.12948 73.8395 9.31309 75.3952 9.6803C76.9735 10.0246 78.3602 10.541 79.5552 11.2295L77.1539 17.1164C74.8316 15.9229 72.6332 15.3262 70.5589 15.3262C68.5071 15.3262 67.4812 15.8311 67.4812 16.841C67.4812 17.3229 67.7856 17.6901 68.3944 17.9426C69.0032 18.1721 70.0065 18.4246 71.4044 18.7C73.2082 19.0442 74.7301 19.4459 75.9702 19.9049C77.2103 20.341 78.2812 21.0639 79.1831 22.0737C80.1075 23.0836 80.5698 24.4606 80.5698 26.2049C80.5698 27.7196 80.1526 29.0967 79.3184 30.336C78.4842 31.5524 77.2328 32.5278 75.5643 33.2623C73.9184 33.9737 71.9117 34.3295 69.5443 34.3295ZM102.628 27.6508V33.7787H82.9449V9.6803H102.189V15.8082H90.7912V18.6311H100.802V24.4836H90.7912V27.6508H102.628ZM108.914 7.89014C110.222 7.89014 111.293 8.29178 112.127 9.09505C112.961 9.89833 113.378 10.9655 113.378 12.2967C113.378 12.8934 113.299 13.4901 113.142 14.0869C112.984 14.6836 112.623 15.5901 112.059 16.8065L109.692 21.936H104.957L106.648 16.118C105.949 15.7737 105.408 15.2803 105.025 14.6377C104.641 13.9721 104.45 13.1918 104.45 12.2967C104.45 10.9655 104.867 9.89833 105.701 9.09505C106.535 8.29178 107.606 7.89014 108.914 7.89014ZM130.751 29.5787H121.755L120.165 33.7787H112.048L122.397 9.6803H130.244L140.593 33.7787H132.341L130.751 29.5787ZM128.553 23.7262L126.253 17.6672L123.953 23.7262H128.553ZM141.866 9.6803H149.848V33.7787H141.866V9.6803ZM165.933 34.3295C163.431 34.3295 161.176 33.8016 159.169 32.7459C157.163 31.6672 155.584 30.1754 154.435 28.2705C153.307 26.3426 152.744 24.1623 152.744 21.7295C152.744 19.2967 153.307 17.1278 154.435 15.2229C155.584 13.2951 157.163 11.8033 159.169 10.7475C161.176 9.66883 163.431 9.12948 165.933 9.12948C168.233 9.12948 170.285 9.5426 172.089 10.3688C173.893 11.1951 175.381 12.3885 176.553 13.9492L171.514 18.5278C170.048 16.6459 168.323 15.7049 166.339 15.7049C164.671 15.7049 163.329 16.2557 162.315 17.3574C161.3 18.436 160.793 19.8934 160.793 21.7295C160.793 23.5655 161.3 25.0344 162.315 26.136C163.329 27.2147 164.671 27.7541 166.339 27.7541C168.323 27.7541 170.048 26.8131 171.514 24.9311L176.553 29.5098C175.381 31.0705 173.893 32.2639 172.089 33.0901C170.285 33.9164 168.233 34.3295 165.933 34.3295Z" fill="white"/>
<path d="M207.432 9.45093H196.835V20.0083H207.432V9.45093Z" fill="white"/>
<path d="M193.453 9.45093H182.856V33.5493H193.453V9.45093Z" fill="white"/>
<path d="M196.835 22.9917V33.5491H216V22.9917H196.835Z" fill="white"/>
</svg>
