<svg width="539" height="594" viewBox="0 0 539 594" fill="none" xmlns="http://www.w3.org/2000/svg">
<rect width="539" height="594" fill="#320000"/>
<rect x="45.25" y="142.25" width="211.5" height="36.5" fill="black" stroke="white" stroke-width="0.5"/>
<path d="M68.6089 158.2V168H67.4609L61.5809 160.692V168H60.1809V158.2H61.3289L67.2089 165.508V158.2H68.6089ZM74.8043 168.084C74.0669 168.084 73.4043 167.921 72.8163 167.594C72.2283 167.267 71.7663 166.819 71.4303 166.25C71.1036 165.671 70.9403 165.018 70.9403 164.29C70.9403 163.562 71.1036 162.913 71.4303 162.344C71.7663 161.765 72.2283 161.317 72.8163 161C73.4043 160.673 74.0669 160.51 74.8043 160.51C75.5416 160.51 76.1996 160.673 76.7783 161C77.3663 161.317 77.8236 161.765 78.1503 162.344C78.4863 162.913 78.6543 163.562 78.6543 164.29C78.6543 165.018 78.4863 165.671 78.1503 166.25C77.8236 166.819 77.3663 167.267 76.7783 167.594C76.1996 167.921 75.5416 168.084 74.8043 168.084ZM74.8043 166.908C75.2803 166.908 75.7049 166.801 76.0783 166.586C76.4609 166.362 76.7596 166.054 76.9743 165.662C77.1889 165.261 77.2963 164.803 77.2963 164.29C77.2963 163.777 77.1889 163.324 76.9743 162.932C76.7596 162.531 76.4609 162.223 76.0783 162.008C75.7049 161.793 75.2803 161.686 74.8043 161.686C74.3283 161.686 73.8989 161.793 73.5163 162.008C73.1429 162.223 72.8443 162.531 72.6203 162.932C72.4056 163.324 72.2983 163.777 72.2983 164.29C72.2983 164.803 72.4056 165.261 72.6203 165.662C72.8443 166.054 73.1429 166.362 73.5163 166.586C73.8989 166.801 74.3283 166.908 74.8043 166.908ZM90.075 160.51C91.0083 160.51 91.7457 160.781 92.287 161.322C92.8377 161.863 93.113 162.666 93.113 163.73V168H91.769V163.884C91.769 163.165 91.601 162.624 91.265 162.26C90.9383 161.896 90.467 161.714 89.851 161.714C89.1697 161.714 88.6283 161.929 88.227 162.358C87.8257 162.778 87.625 163.385 87.625 164.178V168H86.281V163.884C86.281 163.165 86.113 162.624 85.777 162.26C85.4503 161.896 84.979 161.714 84.363 161.714C83.6817 161.714 83.1403 161.929 82.739 162.358C82.3377 162.778 82.137 163.385 82.137 164.178V168H80.793V160.58H82.081V161.686C82.3517 161.303 82.7063 161.014 83.145 160.818C83.5837 160.613 84.083 160.51 84.643 160.51C85.2217 160.51 85.735 160.627 86.183 160.86C86.631 161.093 86.9763 161.434 87.219 161.882C87.499 161.453 87.8863 161.117 88.381 160.874C88.885 160.631 89.4497 160.51 90.075 160.51Z" fill="#AAAAAA"/>
<rect x="45.25" y="202.25" width="438.5" height="36.5" fill="black" stroke="white" stroke-width="0.5"/>
<path d="M67.7554 216.2V226H66.6074L60.7274 218.692V226H59.3274V216.2H60.4754L66.3554 223.508V216.2H67.7554ZM73.9507 226.084C73.2134 226.084 72.5507 225.921 71.9627 225.594C71.3747 225.267 70.9127 224.819 70.5767 224.25C70.2501 223.671 70.0867 223.018 70.0867 222.29C70.0867 221.562 70.2501 220.913 70.5767 220.344C70.9127 219.765 71.3747 219.317 71.9627 219C72.5507 218.673 73.2134 218.51 73.9507 218.51C74.6881 218.51 75.3461 218.673 75.9248 219C76.5127 219.317 76.9701 219.765 77.2968 220.344C77.6328 220.913 77.8008 221.562 77.8008 222.29C77.8008 223.018 77.6328 223.671 77.2968 224.25C76.9701 224.819 76.5127 225.267 75.9248 225.594C75.3461 225.921 74.6881 226.084 73.9507 226.084ZM73.9507 224.908C74.4267 224.908 74.8514 224.801 75.2247 224.586C75.6074 224.362 75.9061 224.054 76.1208 223.662C76.3354 223.261 76.4428 222.803 76.4428 222.29C76.4428 221.777 76.3354 221.324 76.1208 220.932C75.9061 220.531 75.6074 220.223 75.2247 220.008C74.8514 219.793 74.4267 219.686 73.9507 219.686C73.4748 219.686 73.0454 219.793 72.6627 220.008C72.2894 220.223 71.9907 220.531 71.7667 220.932C71.5521 221.324 71.4447 221.777 71.4447 222.29C71.4447 222.803 71.5521 223.261 71.7667 223.662C71.9907 224.054 72.2894 224.362 72.6627 224.586C73.0454 224.801 73.4748 224.908 73.9507 224.908ZM89.2215 218.51C90.1548 218.51 90.8921 218.781 91.4335 219.322C91.9841 219.863 92.2595 220.666 92.2595 221.73V226H90.9155V221.884C90.9155 221.165 90.7475 220.624 90.4115 220.26C90.0848 219.896 89.6135 219.714 88.9975 219.714C88.3161 219.714 87.7748 219.929 87.3735 220.358C86.9721 220.778 86.7715 221.385 86.7715 222.178V226H85.4275V221.884C85.4275 221.165 85.2595 220.624 84.9235 220.26C84.5968 219.896 84.1255 219.714 83.5095 219.714C82.8281 219.714 82.2868 219.929 81.8855 220.358C81.4841 220.778 81.2835 221.385 81.2835 222.178V226H79.9395V218.58H81.2275V219.686C81.4981 219.303 81.8528 219.014 82.2915 218.818C82.7301 218.613 83.2295 218.51 83.7895 218.51C84.3681 218.51 84.8815 218.627 85.3295 218.86C85.7775 219.093 86.1228 219.434 86.3655 219.882C86.6455 219.453 87.0328 219.117 87.5275 218.874C88.0315 218.631 88.5961 218.51 89.2215 218.51ZM106.052 215.612V226H104.764V224.824C104.466 225.235 104.088 225.547 103.63 225.762C103.173 225.977 102.669 226.084 102.118 226.084C101.4 226.084 100.756 225.925 100.186 225.608C99.6169 225.291 99.1689 224.847 98.8422 224.278C98.5249 223.699 98.3662 223.037 98.3662 222.29C98.3662 221.543 98.5249 220.885 98.8422 220.316C99.1689 219.747 99.6169 219.303 100.186 218.986C100.756 218.669 101.4 218.51 102.118 218.51C102.65 218.51 103.14 218.613 103.588 218.818C104.036 219.014 104.41 219.308 104.708 219.7V215.612H106.052ZM102.23 224.908C102.697 224.908 103.122 224.801 103.504 224.586C103.887 224.362 104.186 224.054 104.4 223.662C104.615 223.261 104.722 222.803 104.722 222.29C104.722 221.777 104.615 221.324 104.4 220.932C104.186 220.531 103.887 220.223 103.504 220.008C103.122 219.793 102.697 219.686 102.23 219.686C101.754 219.686 101.325 219.793 100.942 220.008C100.569 220.223 100.27 220.531 100.046 220.932C99.8315 221.324 99.7242 221.777 99.7242 222.29C99.7242 222.803 99.8315 223.261 100.046 223.662C100.27 224.054 100.569 224.362 100.942 224.586C101.325 224.801 101.754 224.908 102.23 224.908ZM109.211 215.528C109.473 215.528 109.687 215.621 109.855 215.808C110.033 215.985 110.121 216.209 110.121 216.48C110.121 216.62 110.107 216.76 110.079 216.9C110.051 217.031 109.991 217.222 109.897 217.474L109.225 219.434H108.343L108.861 217.348C108.684 217.283 108.539 217.175 108.427 217.026C108.325 216.867 108.273 216.685 108.273 216.48C108.273 216.2 108.362 215.971 108.539 215.794C108.717 215.617 108.941 215.528 109.211 215.528ZM119.243 218.58V226H117.969V224.88C117.698 225.263 117.339 225.561 116.891 225.776C116.452 225.981 115.972 226.084 115.449 226.084C114.46 226.084 113.68 225.813 113.111 225.272C112.542 224.721 112.257 223.914 112.257 222.85V218.58H113.601V222.696C113.601 223.415 113.774 223.961 114.119 224.334C114.464 224.698 114.959 224.88 115.603 224.88C116.312 224.88 116.872 224.665 117.283 224.236C117.694 223.807 117.899 223.2 117.899 222.416V218.58H119.243ZM126.254 225.566C126.058 225.734 125.815 225.865 125.526 225.958C125.236 226.042 124.938 226.084 124.63 226.084C123.883 226.084 123.304 225.883 122.894 225.482C122.483 225.081 122.278 224.507 122.278 223.76V219.686H121.018V218.58H122.278V216.956H123.622V218.58H125.75V219.686H123.622V223.704C123.622 224.105 123.72 224.413 123.916 224.628C124.121 224.843 124.41 224.95 124.784 224.95C125.194 224.95 125.544 224.833 125.834 224.6L126.254 225.566ZM128.159 218.58H129.503V226H128.159V218.58ZM128.831 217.152C128.569 217.152 128.35 217.068 128.173 216.9C128.005 216.732 127.921 216.527 127.921 216.284C127.921 216.041 128.005 215.836 128.173 215.668C128.35 215.491 128.569 215.402 128.831 215.402C129.092 215.402 129.307 215.486 129.475 215.654C129.652 215.813 129.741 216.013 129.741 216.256C129.741 216.508 129.652 216.723 129.475 216.9C129.307 217.068 129.092 217.152 128.831 217.152ZM132.349 215.612H133.693V226H132.349V215.612ZM136.539 218.58H137.883V226H136.539V218.58ZM137.211 217.152C136.95 217.152 136.73 217.068 136.553 216.9C136.385 216.732 136.301 216.527 136.301 216.284C136.301 216.041 136.385 215.836 136.553 215.668C136.73 215.491 136.95 215.402 137.211 215.402C137.472 215.402 137.687 215.486 137.855 215.654C138.032 215.813 138.121 216.013 138.121 216.256C138.121 216.508 138.032 216.723 137.855 216.9C137.687 217.068 137.472 217.152 137.211 217.152ZM142.857 226.084C142.25 226.084 141.667 226.005 141.107 225.846C140.547 225.678 140.108 225.468 139.791 225.216L140.351 224.152C140.678 224.385 141.074 224.572 141.541 224.712C142.008 224.852 142.479 224.922 142.955 224.922C144.131 224.922 144.719 224.586 144.719 223.914C144.719 223.69 144.64 223.513 144.481 223.382C144.322 223.251 144.122 223.158 143.879 223.102C143.646 223.037 143.31 222.967 142.871 222.892C142.274 222.799 141.784 222.691 141.401 222.57C141.028 222.449 140.706 222.243 140.435 221.954C140.164 221.665 140.029 221.259 140.029 220.736C140.029 220.064 140.309 219.527 140.869 219.126C141.429 218.715 142.18 218.51 143.123 218.51C143.618 218.51 144.112 218.571 144.607 218.692C145.102 218.813 145.508 218.977 145.825 219.182L145.251 220.246C144.644 219.854 143.93 219.658 143.109 219.658C142.54 219.658 142.106 219.751 141.807 219.938C141.508 220.125 141.359 220.372 141.359 220.68C141.359 220.923 141.443 221.114 141.611 221.254C141.779 221.394 141.984 221.497 142.227 221.562C142.479 221.627 142.829 221.702 143.277 221.786C143.874 221.889 144.355 222.001 144.719 222.122C145.092 222.234 145.41 222.43 145.671 222.71C145.932 222.99 146.063 223.382 146.063 223.886C146.063 224.558 145.774 225.095 145.195 225.496C144.626 225.888 143.846 226.084 142.857 226.084ZM150.725 218.51C151.751 218.51 152.535 218.762 153.077 219.266C153.627 219.77 153.903 220.521 153.903 221.52V226H152.629V225.02C152.405 225.365 152.083 225.631 151.663 225.818C151.252 225.995 150.762 226.084 150.193 226.084C149.362 226.084 148.695 225.883 148.191 225.482C147.696 225.081 147.449 224.553 147.449 223.9C147.449 223.247 147.687 222.724 148.163 222.332C148.639 221.931 149.395 221.73 150.431 221.73H152.559V221.464C152.559 220.885 152.391 220.442 152.055 220.134C151.719 219.826 151.224 219.672 150.571 219.672C150.132 219.672 149.703 219.747 149.283 219.896C148.863 220.036 148.508 220.227 148.219 220.47L147.659 219.462C148.041 219.154 148.499 218.921 149.031 218.762C149.563 218.594 150.127 218.51 150.725 218.51ZM150.417 225.048C150.93 225.048 151.373 224.936 151.747 224.712C152.12 224.479 152.391 224.152 152.559 223.732V222.696H150.487C149.348 222.696 148.779 223.079 148.779 223.844C148.779 224.217 148.923 224.511 149.213 224.726C149.502 224.941 149.903 225.048 150.417 225.048ZM160.842 225.566C160.646 225.734 160.403 225.865 160.114 225.958C159.825 226.042 159.526 226.084 159.218 226.084C158.471 226.084 157.893 225.883 157.482 225.482C157.071 225.081 156.866 224.507 156.866 223.76V219.686H155.606V218.58H156.866V216.956H158.21V218.58H160.338V219.686H158.21V223.704C158.21 224.105 158.308 224.413 158.504 224.628C158.709 224.843 158.999 224.95 159.372 224.95C159.783 224.95 160.133 224.833 160.422 224.6L160.842 225.566ZM169.207 222.332C169.207 222.435 169.197 222.57 169.179 222.738H163.159C163.243 223.391 163.527 223.919 164.013 224.32C164.507 224.712 165.119 224.908 165.847 224.908C166.733 224.908 167.447 224.609 167.989 224.012L168.731 224.88C168.395 225.272 167.975 225.571 167.471 225.776C166.976 225.981 166.421 226.084 165.805 226.084C165.021 226.084 164.325 225.925 163.719 225.608C163.112 225.281 162.641 224.829 162.305 224.25C161.978 223.671 161.815 223.018 161.815 222.29C161.815 221.571 161.973 220.923 162.291 220.344C162.617 219.765 163.061 219.317 163.621 219C164.19 218.673 164.829 218.51 165.539 218.51C166.248 218.51 166.878 218.673 167.429 219C167.989 219.317 168.423 219.765 168.731 220.344C169.048 220.923 169.207 221.585 169.207 222.332ZM165.539 219.644C164.895 219.644 164.353 219.84 163.915 220.232C163.485 220.624 163.233 221.137 163.159 221.772H167.919C167.844 221.147 167.587 220.638 167.149 220.246C166.719 219.845 166.183 219.644 165.539 219.644ZM178.269 218.58V226H176.995V224.88C176.724 225.263 176.365 225.561 175.917 225.776C175.478 225.981 174.998 226.084 174.475 226.084C173.486 226.084 172.706 225.813 172.137 225.272C171.568 224.721 171.283 223.914 171.283 222.85V218.58H172.627V222.696C172.627 223.415 172.8 223.961 173.145 224.334C173.49 224.698 173.985 224.88 174.629 224.88C175.338 224.88 175.898 224.665 176.309 224.236C176.72 223.807 176.925 223.2 176.925 222.416V218.58H178.269ZM182.396 219.826C182.629 219.397 182.974 219.07 183.432 218.846C183.889 218.622 184.444 218.51 185.098 218.51V219.812C185.023 219.803 184.92 219.798 184.79 219.798C184.062 219.798 183.488 220.017 183.068 220.456C182.657 220.885 182.452 221.501 182.452 222.304V226H181.108V218.58H182.396V219.826Z" fill="#AAAAAA"/>
<rect x="45.25" y="262.25" width="438.5" height="36.5" fill="black" stroke="white" stroke-width="0.5"/>
<path d="M66.4394 284.782V286H59.3274V276.2H66.2434V277.418H60.7274V280.428H65.6414V281.618H60.7274V284.782H66.4394ZM68.0409 281.576H71.8069V282.738H68.0409V281.576ZM83.4383 278.51C84.3716 278.51 85.1089 278.781 85.6503 279.322C86.2009 279.863 86.4763 280.666 86.4763 281.73V286H85.1323V281.884C85.1323 281.165 84.9643 280.624 84.6283 280.26C84.3016 279.896 83.8303 279.714 83.2143 279.714C82.5329 279.714 81.9916 279.929 81.5903 280.358C81.1889 280.778 80.9883 281.385 80.9883 282.178V286H79.6443V281.884C79.6443 281.165 79.4763 280.624 79.1403 280.26C78.8136 279.896 78.3423 279.714 77.7263 279.714C77.0449 279.714 76.5036 279.929 76.1023 280.358C75.7009 280.778 75.5003 281.385 75.5003 282.178V286H74.1563V278.58H75.4443V279.686C75.7149 279.303 76.0696 279.014 76.5083 278.818C76.9469 278.613 77.4463 278.51 78.0063 278.51C78.5849 278.51 79.0983 278.627 79.5463 278.86C79.9943 279.093 80.3396 279.434 80.5823 279.882C80.8623 279.453 81.2496 279.117 81.7443 278.874C82.2483 278.631 82.8129 278.51 83.4383 278.51ZM91.9312 278.51C92.9579 278.51 93.7419 278.762 94.2832 279.266C94.8339 279.77 95.1092 280.521 95.1092 281.52V286H93.8352V285.02C93.6112 285.365 93.2892 285.631 92.8692 285.818C92.4586 285.995 91.9686 286.084 91.3992 286.084C90.5686 286.084 89.9012 285.883 89.3972 285.482C88.9026 285.081 88.6552 284.553 88.6552 283.9C88.6552 283.247 88.8932 282.724 89.3692 282.332C89.8452 281.931 90.6012 281.73 91.6372 281.73H93.7652V281.464C93.7652 280.885 93.5972 280.442 93.2612 280.134C92.9252 279.826 92.4306 279.672 91.7772 279.672C91.3386 279.672 90.9092 279.747 90.4892 279.896C90.0692 280.036 89.7146 280.227 89.4252 280.47L88.8652 279.462C89.2479 279.154 89.7052 278.921 90.2372 278.762C90.7692 278.594 91.3339 278.51 91.9312 278.51ZM91.6232 285.048C92.1366 285.048 92.5799 284.936 92.9532 284.712C93.3266 284.479 93.5972 284.152 93.7652 283.732V282.696H91.6932C90.5546 282.696 89.9852 283.079 89.9852 283.844C89.9852 284.217 90.1299 284.511 90.4192 284.726C90.7086 284.941 91.1099 285.048 91.6232 285.048ZM97.8764 278.58H99.2204V286H97.8764V278.58ZM98.5484 277.152C98.2871 277.152 98.0678 277.068 97.8904 276.9C97.7224 276.732 97.6384 276.527 97.6384 276.284C97.6384 276.041 97.7224 275.836 97.8904 275.668C98.0678 275.491 98.2871 275.402 98.5484 275.402C98.8098 275.402 99.0244 275.486 99.1924 275.654C99.3698 275.813 99.4584 276.013 99.4584 276.256C99.4584 276.508 99.3698 276.723 99.1924 276.9C99.0244 277.068 98.8098 277.152 98.5484 277.152ZM102.067 275.612H103.411V286H102.067V275.612Z" fill="#AAAAAA"/>
<rect x="45.25" y="322.25" width="438.5" height="36.5" fill="black" stroke="white" stroke-width="0.5"/>
<path d="M67.7554 336.2V346H66.6074L60.7274 338.692V346H59.3274V336.2H60.4754L66.3554 343.508V336.2H67.7554ZM77.6888 338.58V346H76.4147V344.88C76.1441 345.263 75.7848 345.561 75.3368 345.776C74.8981 345.981 74.4174 346.084 73.8947 346.084C72.9054 346.084 72.1261 345.813 71.5567 345.272C70.9874 344.721 70.7027 343.914 70.7027 342.85V338.58H72.0467V342.696C72.0467 343.415 72.2194 343.961 72.5647 344.334C72.9101 344.698 73.4047 344.88 74.0487 344.88C74.7581 344.88 75.3181 344.665 75.7288 344.236C76.1394 343.807 76.3448 343.2 76.3448 342.416V338.58H77.6888ZM89.8094 338.51C90.7427 338.51 91.48 338.781 92.0214 339.322C92.572 339.863 92.8474 340.666 92.8474 341.73V346H91.5034V341.884C91.5034 341.165 91.3354 340.624 90.9994 340.26C90.6727 339.896 90.2014 339.714 89.5854 339.714C88.904 339.714 88.3627 339.929 87.9614 340.358C87.56 340.778 87.3594 341.385 87.3594 342.178V346H86.0154V341.884C86.0154 341.165 85.8474 340.624 85.5114 340.26C85.1847 339.896 84.7134 339.714 84.0974 339.714C83.416 339.714 82.8747 339.929 82.4734 340.358C82.072 340.778 81.8714 341.385 81.8714 342.178V346H80.5274V338.58H81.8154V339.686C82.086 339.303 82.4407 339.014 82.8794 338.818C83.318 338.613 83.8174 338.51 84.3774 338.51C84.956 338.51 85.4694 338.627 85.9174 338.86C86.3654 339.093 86.7107 339.434 86.9534 339.882C87.2334 339.453 87.6207 339.117 88.1154 338.874C88.6194 338.631 89.184 338.51 89.8094 338.51ZM102.347 342.332C102.347 342.435 102.338 342.57 102.319 342.738H96.2993C96.3833 343.391 96.668 343.919 97.1533 344.32C97.648 344.712 98.2593 344.908 98.9873 344.908C99.874 344.908 100.588 344.609 101.129 344.012L101.871 344.88C101.535 345.272 101.115 345.571 100.611 345.776C100.117 345.981 99.5613 346.084 98.9453 346.084C98.1613 346.084 97.466 345.925 96.8593 345.608C96.2527 345.281 95.7813 344.829 95.4453 344.25C95.1187 343.671 94.9553 343.018 94.9553 342.29C94.9553 341.571 95.114 340.923 95.4313 340.344C95.758 339.765 96.2013 339.317 96.7613 339C97.3307 338.673 97.97 338.51 98.6793 338.51C99.3887 338.51 100.019 338.673 100.569 339C101.129 339.317 101.563 339.765 101.871 340.344C102.189 340.923 102.347 341.585 102.347 342.332ZM98.6793 339.644C98.0353 339.644 97.494 339.84 97.0553 340.232C96.626 340.624 96.374 341.137 96.2993 341.772H101.059C100.985 341.147 100.728 340.638 100.289 340.246C99.86 339.845 99.3233 339.644 98.6793 339.644ZM99.5193 335.682H101.227L98.8753 337.502H97.6153L99.5193 335.682ZM105.782 339.826C106.015 339.397 106.36 339.07 106.818 338.846C107.275 338.622 107.83 338.51 108.484 338.51V339.812C108.409 339.803 108.306 339.798 108.176 339.798C107.448 339.798 106.874 340.017 106.454 340.456C106.043 340.885 105.838 341.501 105.838 342.304V346H104.494V338.58H105.782V339.826ZM113.53 346.084C112.792 346.084 112.13 345.921 111.542 345.594C110.954 345.267 110.492 344.819 110.156 344.25C109.829 343.671 109.666 343.018 109.666 342.29C109.666 341.562 109.829 340.913 110.156 340.344C110.492 339.765 110.954 339.317 111.542 339C112.13 338.673 112.792 338.51 113.53 338.51C114.267 338.51 114.925 338.673 115.504 339C116.092 339.317 116.549 339.765 116.876 340.344C117.212 340.913 117.38 341.562 117.38 342.29C117.38 343.018 117.212 343.671 116.876 344.25C116.549 344.819 116.092 345.267 115.504 345.594C114.925 345.921 114.267 346.084 113.53 346.084ZM113.53 344.908C114.006 344.908 114.43 344.801 114.804 344.586C115.186 344.362 115.485 344.054 115.7 343.662C115.914 343.261 116.022 342.803 116.022 342.29C116.022 341.777 115.914 341.324 115.7 340.932C115.485 340.531 115.186 340.223 114.804 340.008C114.43 339.793 114.006 339.686 113.53 339.686C113.054 339.686 112.624 339.793 112.242 340.008C111.868 340.223 111.57 340.531 111.346 340.932C111.131 341.324 111.024 341.777 111.024 342.29C111.024 342.803 111.131 343.261 111.346 343.662C111.57 344.054 111.868 344.362 112.242 344.586C112.624 344.801 113.054 344.908 113.53 344.908ZM130.558 335.612V346H129.27V344.824C128.972 345.235 128.594 345.547 128.136 345.762C127.679 345.977 127.175 346.084 126.624 346.084C125.906 346.084 125.262 345.925 124.692 345.608C124.123 345.291 123.675 344.847 123.348 344.278C123.031 343.699 122.872 343.037 122.872 342.29C122.872 341.543 123.031 340.885 123.348 340.316C123.675 339.747 124.123 339.303 124.692 338.986C125.262 338.669 125.906 338.51 126.624 338.51C127.156 338.51 127.646 338.613 128.094 338.818C128.542 339.014 128.916 339.308 129.214 339.7V335.612H130.558ZM126.736 344.908C127.203 344.908 127.628 344.801 128.01 344.586C128.393 344.362 128.692 344.054 128.906 343.662C129.121 343.261 129.228 342.803 129.228 342.29C129.228 341.777 129.121 341.324 128.906 340.932C128.692 340.531 128.393 340.223 128.01 340.008C127.628 339.793 127.203 339.686 126.736 339.686C126.26 339.686 125.831 339.793 125.448 340.008C125.075 340.223 124.776 340.531 124.552 340.932C124.338 341.324 124.23 341.777 124.23 342.29C124.23 342.803 124.338 343.261 124.552 343.662C124.776 344.054 125.075 344.362 125.448 344.586C125.831 344.801 126.26 344.908 126.736 344.908ZM140.087 342.332C140.087 342.435 140.078 342.57 140.059 342.738H134.039C134.123 343.391 134.408 343.919 134.893 344.32C135.388 344.712 135.999 344.908 136.727 344.908C137.614 344.908 138.328 344.609 138.869 344.012L139.611 344.88C139.275 345.272 138.855 345.571 138.351 345.776C137.857 345.981 137.301 346.084 136.685 346.084C135.901 346.084 135.206 345.925 134.599 345.608C133.993 345.281 133.521 344.829 133.185 344.25C132.859 343.671 132.695 343.018 132.695 342.29C132.695 341.571 132.854 340.923 133.171 340.344C133.498 339.765 133.941 339.317 134.501 339C135.071 338.673 135.71 338.51 136.419 338.51C137.129 338.51 137.759 338.673 138.309 339C138.869 339.317 139.303 339.765 139.611 340.344C139.929 340.923 140.087 341.585 140.087 342.332ZM136.419 339.644C135.775 339.644 135.234 339.84 134.795 340.232C134.366 340.624 134.114 341.137 134.039 341.772H138.799C138.725 341.147 138.468 340.638 138.029 340.246C137.6 339.845 137.063 339.644 136.419 339.644ZM150.445 345.566C150.249 345.734 150.007 345.865 149.717 345.958C149.428 346.042 149.129 346.084 148.821 346.084C148.075 346.084 147.496 345.883 147.085 345.482C146.675 345.081 146.469 344.507 146.469 343.76V339.686H145.209V338.58H146.469V336.956H147.813V338.58H149.941V339.686H147.813V343.704C147.813 344.105 147.911 344.413 148.107 344.628C148.313 344.843 148.602 344.95 148.975 344.95C149.386 344.95 149.736 344.833 150.025 344.6L150.445 345.566ZM158.81 342.332C158.81 342.435 158.801 342.57 158.782 342.738H152.762C152.846 343.391 153.131 343.919 153.616 344.32C154.111 344.712 154.722 344.908 155.45 344.908C156.337 344.908 157.051 344.609 157.592 344.012L158.334 344.88C157.998 345.272 157.578 345.571 157.074 345.776C156.579 345.981 156.024 346.084 155.408 346.084C154.624 346.084 153.929 345.925 153.322 345.608C152.715 345.281 152.244 344.829 151.908 344.25C151.581 343.671 151.418 343.018 151.418 342.29C151.418 341.571 151.577 340.923 151.894 340.344C152.221 339.765 152.664 339.317 153.224 339C153.793 338.673 154.433 338.51 155.142 338.51C155.851 338.51 156.481 338.673 157.032 339C157.592 339.317 158.026 339.765 158.334 340.344C158.651 340.923 158.81 341.585 158.81 342.332ZM155.142 339.644C154.498 339.644 153.957 339.84 153.518 340.232C153.089 340.624 152.837 341.137 152.762 341.772H157.522C157.447 341.147 157.191 340.638 156.752 340.246C156.323 339.845 155.786 339.644 155.142 339.644ZM155.982 335.682H157.69L155.338 337.502H154.078L155.982 335.682ZM160.956 335.612H162.3V346H160.956V335.612ZM171.852 342.332C171.852 342.435 171.843 342.57 171.824 342.738H165.804C165.888 343.391 166.173 343.919 166.658 344.32C167.153 344.712 167.764 344.908 168.492 344.908C169.379 344.908 170.093 344.609 170.634 344.012L171.376 344.88C171.04 345.272 170.62 345.571 170.116 345.776C169.622 345.981 169.066 346.084 168.45 346.084C167.666 346.084 166.971 345.925 166.364 345.608C165.758 345.281 165.286 344.829 164.95 344.25C164.624 343.671 164.46 343.018 164.46 342.29C164.46 341.571 164.619 340.923 164.936 340.344C165.263 339.765 165.706 339.317 166.266 339C166.836 338.673 167.475 338.51 168.184 338.51C168.894 338.51 169.524 338.673 170.074 339C170.634 339.317 171.068 339.765 171.376 340.344C171.694 340.923 171.852 341.585 171.852 342.332ZM168.184 339.644C167.54 339.644 166.999 339.84 166.56 340.232C166.131 340.624 165.879 341.137 165.804 341.772H170.564C170.49 341.147 170.233 340.638 169.794 340.246C169.365 339.845 168.828 339.644 168.184 339.644ZM169.024 335.682H170.732L168.38 337.502H167.12L169.024 335.682ZM177.933 338.51C178.651 338.51 179.295 338.669 179.865 338.986C180.434 339.303 180.877 339.747 181.195 340.316C181.521 340.885 181.685 341.543 181.685 342.29C181.685 343.037 181.521 343.699 181.195 344.278C180.877 344.847 180.434 345.291 179.865 345.608C179.295 345.925 178.651 346.084 177.933 346.084C177.401 346.084 176.911 345.981 176.463 345.776C176.024 345.571 175.651 345.272 175.343 344.88V348.716H173.999V338.58H175.287V339.756C175.585 339.345 175.963 339.037 176.421 338.832C176.878 338.617 177.382 338.51 177.933 338.51ZM177.821 344.908C178.297 344.908 178.721 344.801 179.095 344.586C179.477 344.362 179.776 344.054 179.991 343.662C180.215 343.261 180.327 342.803 180.327 342.29C180.327 341.777 180.215 341.324 179.991 340.932C179.776 340.531 179.477 340.223 179.095 340.008C178.721 339.793 178.297 339.686 177.821 339.686C177.354 339.686 176.929 339.798 176.547 340.022C176.173 340.237 175.875 340.54 175.651 340.932C175.436 341.324 175.329 341.777 175.329 342.29C175.329 342.803 175.436 343.261 175.651 343.662C175.865 344.054 176.164 344.362 176.547 344.586C176.929 344.801 177.354 344.908 177.821 344.908ZM187.784 338.51C188.726 338.51 189.473 338.785 190.024 339.336C190.584 339.877 190.864 340.675 190.864 341.73V346H189.52V341.884C189.52 341.165 189.347 340.624 189.002 340.26C188.656 339.896 188.162 339.714 187.518 339.714C186.79 339.714 186.216 339.929 185.796 340.358C185.376 340.778 185.166 341.385 185.166 342.178V346H183.822V335.612H185.166V339.63C185.446 339.275 185.81 339 186.258 338.804C186.715 338.608 187.224 338.51 187.784 338.51ZM196.85 346.084C196.113 346.084 195.45 345.921 194.862 345.594C194.274 345.267 193.812 344.819 193.476 344.25C193.149 343.671 192.986 343.018 192.986 342.29C192.986 341.562 193.149 340.913 193.476 340.344C193.812 339.765 194.274 339.317 194.862 339C195.45 338.673 196.113 338.51 196.85 338.51C197.587 338.51 198.245 338.673 198.824 339C199.412 339.317 199.869 339.765 200.196 340.344C200.532 340.913 200.7 341.562 200.7 342.29C200.7 343.018 200.532 343.671 200.196 344.25C199.869 344.819 199.412 345.267 198.824 345.594C198.245 345.921 197.587 346.084 196.85 346.084ZM196.85 344.908C197.326 344.908 197.751 344.801 198.124 344.586C198.507 344.362 198.805 344.054 199.02 343.662C199.235 343.261 199.342 342.803 199.342 342.29C199.342 341.777 199.235 341.324 199.02 340.932C198.805 340.531 198.507 340.223 198.124 340.008C197.751 339.793 197.326 339.686 196.85 339.686C196.374 339.686 195.945 339.793 195.562 340.008C195.189 340.223 194.89 340.531 194.666 340.932C194.451 341.324 194.344 341.777 194.344 342.29C194.344 342.803 194.451 343.261 194.666 343.662C194.89 344.054 195.189 344.362 195.562 344.586C195.945 344.801 196.374 344.908 196.85 344.908ZM206.801 338.51C207.743 338.51 208.49 338.785 209.041 339.336C209.601 339.877 209.881 340.675 209.881 341.73V346H208.537V341.884C208.537 341.165 208.364 340.624 208.019 340.26C207.673 339.896 207.179 339.714 206.535 339.714C205.807 339.714 205.233 339.929 204.813 340.358C204.393 340.778 204.183 341.385 204.183 342.178V346H202.839V338.58H204.127V339.7C204.397 339.317 204.761 339.023 205.219 338.818C205.685 338.613 206.213 338.51 206.801 338.51ZM219.395 342.332C219.395 342.435 219.386 342.57 219.367 342.738H213.347C213.431 343.391 213.716 343.919 214.201 344.32C214.696 344.712 215.307 344.908 216.035 344.908C216.922 344.908 217.636 344.609 218.177 344.012L218.919 344.88C218.583 345.272 218.163 345.571 217.659 345.776C217.164 345.981 216.609 346.084 215.993 346.084C215.209 346.084 214.514 345.925 213.907 345.608C213.3 345.281 212.829 344.829 212.493 344.25C212.166 343.671 212.003 343.018 212.003 342.29C212.003 341.571 212.162 340.923 212.479 340.344C212.806 339.765 213.249 339.317 213.809 339C214.378 338.673 215.018 338.51 215.727 338.51C216.436 338.51 217.066 338.673 217.617 339C218.177 339.317 218.611 339.765 218.919 340.344C219.236 340.923 219.395 341.585 219.395 342.332ZM215.727 339.644C215.083 339.644 214.542 339.84 214.103 340.232C213.674 340.624 213.422 341.137 213.347 341.772H218.107C218.032 341.147 217.776 340.638 217.337 340.246C216.908 339.845 216.371 339.644 215.727 339.644Z" fill="#AAAAAA"/>
<rect x="45.25" y="382.25" width="438.5" height="36.5" fill="black" stroke="white" stroke-width="0.5"/>
<path d="M68.4134 406L68.3994 398.86L64.8574 404.81H64.2134L60.6714 398.902V406H59.3274V396.2H60.4754L64.5634 403.088L68.5954 396.2H69.7434L69.7574 406H68.4134ZM75.9605 406.084C75.2232 406.084 74.5605 405.921 73.9725 405.594C73.3845 405.267 72.9225 404.819 72.5865 404.25C72.2598 403.671 72.0965 403.018 72.0965 402.29C72.0965 401.562 72.2598 400.913 72.5865 400.344C72.9225 399.765 73.3845 399.317 73.9725 399C74.5605 398.673 75.2232 398.51 75.9605 398.51C76.6978 398.51 77.3558 398.673 77.9345 399C78.5225 399.317 78.9798 399.765 79.3065 400.344C79.6425 400.913 79.8105 401.562 79.8105 402.29C79.8105 403.018 79.6425 403.671 79.3065 404.25C78.9798 404.819 78.5225 405.267 77.9345 405.594C77.3558 405.921 76.6978 406.084 75.9605 406.084ZM75.9605 404.908C76.4365 404.908 76.8612 404.801 77.2345 404.586C77.6172 404.362 77.9158 404.054 78.1305 403.662C78.3452 403.261 78.4525 402.803 78.4525 402.29C78.4525 401.777 78.3452 401.324 78.1305 400.932C77.9158 400.531 77.6172 400.223 77.2345 400.008C76.8612 399.793 76.4365 399.686 75.9605 399.686C75.4845 399.686 75.0552 399.793 74.6725 400.008C74.2992 400.223 74.0005 400.531 73.7765 400.932C73.5618 401.324 73.4545 401.777 73.4545 402.29C73.4545 402.803 73.5618 403.261 73.7765 403.662C74.0005 404.054 74.2992 404.362 74.6725 404.586C75.0552 404.801 75.4845 404.908 75.9605 404.908ZM86.1212 405.566C85.9252 405.734 85.6826 405.865 85.3932 405.958C85.1039 406.042 84.8052 406.084 84.4972 406.084C83.7506 406.084 83.1719 405.883 82.7612 405.482C82.3506 405.081 82.1452 404.507 82.1452 403.76V399.686H80.8852V398.58H82.1452V396.956H83.4892V398.58H85.6172V399.686H83.4892V403.704C83.4892 404.105 83.5872 404.413 83.7832 404.628C83.9886 404.843 84.2779 404.95 84.6512 404.95C85.0619 404.95 85.4119 404.833 85.7012 404.6L86.1212 405.566ZM99.0659 395.612V406H97.7779V404.824C97.4792 405.235 97.1012 405.547 96.6439 405.762C96.1865 405.977 95.6825 406.084 95.1319 406.084C94.4132 406.084 93.7692 405.925 93.1999 405.608C92.6305 405.291 92.1825 404.847 91.8559 404.278C91.5385 403.699 91.3799 403.037 91.3799 402.29C91.3799 401.543 91.5385 400.885 91.8559 400.316C92.1825 399.747 92.6305 399.303 93.1999 398.986C93.7692 398.669 94.4132 398.51 95.1319 398.51C95.6639 398.51 96.1539 398.613 96.6019 398.818C97.0499 399.014 97.4232 399.308 97.7219 399.7V395.612H99.0659ZM95.2439 404.908C95.7105 404.908 96.1352 404.801 96.5179 404.586C96.9005 404.362 97.1992 404.054 97.4139 403.662C97.6285 403.261 97.7359 402.803 97.7359 402.29C97.7359 401.777 97.6285 401.324 97.4139 400.932C97.1992 400.531 96.9005 400.223 96.5179 400.008C96.1352 399.793 95.7105 399.686 95.2439 399.686C94.7679 399.686 94.3385 399.793 93.9559 400.008C93.5825 400.223 93.2839 400.531 93.0599 400.932C92.8452 401.324 92.7379 401.777 92.7379 402.29C92.7379 402.803 92.8452 403.261 93.0599 403.662C93.2839 404.054 93.5825 404.362 93.9559 404.586C94.3385 404.801 94.7679 404.908 95.2439 404.908ZM108.595 402.332C108.595 402.435 108.586 402.57 108.567 402.738H102.547C102.631 403.391 102.916 403.919 103.401 404.32C103.896 404.712 104.507 404.908 105.235 404.908C106.122 404.908 106.836 404.609 107.377 404.012L108.119 404.88C107.783 405.272 107.363 405.571 106.859 405.776C106.364 405.981 105.809 406.084 105.193 406.084C104.409 406.084 103.714 405.925 103.107 405.608C102.5 405.281 102.029 404.829 101.693 404.25C101.366 403.671 101.203 403.018 101.203 402.29C101.203 401.571 101.362 400.923 101.679 400.344C102.006 399.765 102.449 399.317 103.009 399C103.578 398.673 104.218 398.51 104.927 398.51C105.636 398.51 106.266 398.673 106.817 399C107.377 399.317 107.811 399.765 108.119 400.344C108.436 400.923 108.595 401.585 108.595 402.332ZM104.927 399.644C104.283 399.644 103.742 399.84 103.303 400.232C102.874 400.624 102.622 401.137 102.547 401.772H107.307C107.232 401.147 106.976 400.638 106.537 400.246C106.108 399.845 105.571 399.644 104.927 399.644ZM118.715 398.51C119.434 398.51 120.078 398.669 120.647 398.986C121.216 399.303 121.66 399.747 121.977 400.316C122.304 400.885 122.467 401.543 122.467 402.29C122.467 403.037 122.304 403.699 121.977 404.278C121.66 404.847 121.216 405.291 120.647 405.608C120.078 405.925 119.434 406.084 118.715 406.084C118.183 406.084 117.693 405.981 117.245 405.776C116.806 405.571 116.433 405.272 116.125 404.88V408.716H114.781V398.58H116.069V399.756C116.368 399.345 116.746 399.037 117.203 398.832C117.66 398.617 118.164 398.51 118.715 398.51ZM118.603 404.908C119.079 404.908 119.504 404.801 119.877 404.586C120.26 404.362 120.558 404.054 120.773 403.662C120.997 403.261 121.109 402.803 121.109 402.29C121.109 401.777 120.997 401.324 120.773 400.932C120.558 400.531 120.26 400.223 119.877 400.008C119.504 399.793 119.079 399.686 118.603 399.686C118.136 399.686 117.712 399.798 117.329 400.022C116.956 400.237 116.657 400.54 116.433 400.932C116.218 401.324 116.111 401.777 116.111 402.29C116.111 402.803 116.218 403.261 116.433 403.662C116.648 404.054 116.946 404.362 117.329 404.586C117.712 404.801 118.136 404.908 118.603 404.908ZM127.237 398.51C128.264 398.51 129.048 398.762 129.589 399.266C130.14 399.77 130.415 400.521 130.415 401.52V406H129.141V405.02C128.917 405.365 128.595 405.631 128.175 405.818C127.765 405.995 127.275 406.084 126.705 406.084C125.875 406.084 125.207 405.883 124.703 405.482C124.209 405.081 123.961 404.553 123.961 403.9C123.961 403.247 124.199 402.724 124.675 402.332C125.151 401.931 125.907 401.73 126.943 401.73H129.071V401.464C129.071 400.885 128.903 400.442 128.567 400.134C128.231 399.826 127.737 399.672 127.083 399.672C126.645 399.672 126.215 399.747 125.795 399.896C125.375 400.036 125.021 400.227 124.731 400.47L124.171 399.462C124.554 399.154 125.011 398.921 125.543 398.762C126.075 398.594 126.64 398.51 127.237 398.51ZM126.929 405.048C127.443 405.048 127.886 404.936 128.259 404.712C128.633 404.479 128.903 404.152 129.071 403.732V402.696H126.999C125.861 402.696 125.291 403.079 125.291 403.844C125.291 404.217 125.436 404.511 125.725 404.726C126.015 404.941 126.416 405.048 126.929 405.048ZM135.311 406.084C134.704 406.084 134.121 406.005 133.561 405.846C133.001 405.678 132.562 405.468 132.245 405.216L132.805 404.152C133.131 404.385 133.528 404.572 133.995 404.712C134.461 404.852 134.933 404.922 135.409 404.922C136.585 404.922 137.173 404.586 137.173 403.914C137.173 403.69 137.093 403.513 136.935 403.382C136.776 403.251 136.575 403.158 136.333 403.102C136.099 403.037 135.763 402.967 135.325 402.892C134.727 402.799 134.237 402.691 133.855 402.57C133.481 402.449 133.159 402.243 132.889 401.954C132.618 401.665 132.483 401.259 132.483 400.736C132.483 400.064 132.763 399.527 133.323 399.126C133.883 398.715 134.634 398.51 135.577 398.51C136.071 398.51 136.566 398.571 137.061 398.692C137.555 398.813 137.961 398.977 138.279 399.182L137.705 400.246C137.098 399.854 136.384 399.658 135.563 399.658C134.993 399.658 134.559 399.751 134.261 399.938C133.962 400.125 133.813 400.372 133.813 400.68C133.813 400.923 133.897 401.114 134.065 401.254C134.233 401.394 134.438 401.497 134.681 401.562C134.933 401.627 135.283 401.702 135.731 401.786C136.328 401.889 136.809 402.001 137.173 402.122C137.546 402.234 137.863 402.43 138.125 402.71C138.386 402.99 138.517 403.382 138.517 403.886C138.517 404.558 138.227 405.095 137.649 405.496C137.079 405.888 136.3 406.084 135.311 406.084ZM142.604 406.084C141.998 406.084 141.414 406.005 140.854 405.846C140.294 405.678 139.856 405.468 139.538 405.216L140.098 404.152C140.425 404.385 140.822 404.572 141.288 404.712C141.755 404.852 142.226 404.922 142.702 404.922C143.878 404.922 144.466 404.586 144.466 403.914C144.466 403.69 144.387 403.513 144.228 403.382C144.07 403.251 143.869 403.158 143.626 403.102C143.393 403.037 143.057 402.967 142.618 402.892C142.021 402.799 141.531 402.691 141.148 402.57C140.775 402.449 140.453 402.243 140.182 401.954C139.912 401.665 139.776 401.259 139.776 400.736C139.776 400.064 140.056 399.527 140.616 399.126C141.176 398.715 141.928 398.51 142.87 398.51C143.365 398.51 143.86 398.571 144.354 398.692C144.849 398.813 145.255 398.977 145.572 399.182L144.998 400.246C144.392 399.854 143.678 399.658 142.856 399.658C142.287 399.658 141.853 399.751 141.554 399.938C141.256 400.125 141.106 400.372 141.106 400.68C141.106 400.923 141.19 401.114 141.358 401.254C141.526 401.394 141.732 401.497 141.974 401.562C142.226 401.627 142.576 401.702 143.024 401.786C143.622 401.889 144.102 402.001 144.466 402.122C144.84 402.234 145.157 402.43 145.418 402.71C145.68 402.99 145.81 403.382 145.81 403.886C145.81 404.558 145.521 405.095 144.942 405.496C144.373 405.888 143.594 406.084 142.604 406.084ZM154.476 402.332C154.476 402.435 154.467 402.57 154.448 402.738H148.428C148.512 403.391 148.797 403.919 149.282 404.32C149.777 404.712 150.388 404.908 151.116 404.908C152.003 404.908 152.717 404.609 153.258 404.012L154 404.88C153.664 405.272 153.244 405.571 152.74 405.776C152.245 405.981 151.69 406.084 151.074 406.084C150.29 406.084 149.595 405.925 148.988 405.608C148.381 405.281 147.91 404.829 147.574 404.25C147.247 403.671 147.084 403.018 147.084 402.29C147.084 401.571 147.243 400.923 147.56 400.344C147.887 399.765 148.33 399.317 148.89 399C149.459 398.673 150.099 398.51 150.808 398.51C151.517 398.51 152.147 398.673 152.698 399C153.258 399.317 153.692 399.765 154 400.344C154.317 400.923 154.476 401.585 154.476 402.332ZM150.808 399.644C150.164 399.644 149.623 399.84 149.184 400.232C148.755 400.624 148.503 401.137 148.428 401.772H153.188C153.113 401.147 152.857 400.638 152.418 400.246C151.989 399.845 151.452 399.644 150.808 399.644Z" fill="#AAAAAA"/>
<rect x="45.25" y="442.25" width="438.5" height="36.5" fill="black" stroke="white" stroke-width="0.5"/>
<path d="M63.7094 466.112C62.7294 466.112 61.8428 465.897 61.0494 465.468C60.2654 465.029 59.6494 464.432 59.2014 463.676C58.7534 462.911 58.5294 462.052 58.5294 461.1C58.5294 460.148 58.7534 459.294 59.2014 458.538C59.6494 457.773 60.2701 457.175 61.0634 456.746C61.8568 456.307 62.7434 456.088 63.7234 456.088C64.4888 456.088 65.1888 456.219 65.8234 456.48C66.4581 456.732 66.9994 457.11 67.4474 457.614L66.5374 458.496C65.8001 457.721 64.8808 457.334 63.7794 457.334C63.0514 457.334 62.3934 457.497 61.8054 457.824C61.2174 458.151 60.7554 458.603 60.4194 459.182C60.0928 459.751 59.9294 460.391 59.9294 461.1C59.9294 461.809 60.0928 462.453 60.4194 463.032C60.7554 463.601 61.2174 464.049 61.8054 464.376C62.3934 464.703 63.0514 464.866 63.7794 464.866C64.8714 464.866 65.7908 464.474 66.5374 463.69L67.4474 464.572C66.9994 465.076 66.4534 465.459 65.8094 465.72C65.1748 465.981 64.4748 466.112 63.7094 466.112ZM72.3922 466.084C71.6548 466.084 70.9922 465.921 70.4042 465.594C69.8162 465.267 69.3542 464.819 69.0182 464.25C68.6915 463.671 68.5282 463.018 68.5282 462.29C68.5282 461.562 68.6915 460.913 69.0182 460.344C69.3542 459.765 69.8162 459.317 70.4042 459C70.9922 458.673 71.6548 458.51 72.3922 458.51C73.1295 458.51 73.7875 458.673 74.3662 459C74.9542 459.317 75.4115 459.765 75.7382 460.344C76.0742 460.913 76.2422 461.562 76.2422 462.29C76.2422 463.018 76.0742 463.671 75.7382 464.25C75.4115 464.819 74.9542 465.267 74.3662 465.594C73.7875 465.921 73.1295 466.084 72.3922 466.084ZM72.3922 464.908C72.8682 464.908 73.2928 464.801 73.6662 464.586C74.0488 464.362 74.3475 464.054 74.5622 463.662C74.7768 463.261 74.8842 462.803 74.8842 462.29C74.8842 461.777 74.7768 461.324 74.5622 460.932C74.3475 460.531 74.0488 460.223 73.6662 460.008C73.2928 459.793 72.8682 459.686 72.3922 459.686C71.9162 459.686 71.4868 459.793 71.1042 460.008C70.7308 460.223 70.4322 460.531 70.2082 460.932C69.9935 461.324 69.8862 461.777 69.8862 462.29C69.8862 462.803 69.9935 463.261 70.2082 463.662C70.4322 464.054 70.7308 464.362 71.1042 464.586C71.4868 464.801 71.9162 464.908 72.3922 464.908ZM82.3429 458.51C83.2855 458.51 84.0322 458.785 84.5829 459.336C85.1429 459.877 85.4229 460.675 85.4229 461.73V466H84.0789V461.884C84.0789 461.165 83.9062 460.624 83.5609 460.26C83.2155 459.896 82.7209 459.714 82.0769 459.714C81.3489 459.714 80.7749 459.929 80.3549 460.358C79.9349 460.778 79.7249 461.385 79.7249 462.178V466H78.3809V458.58H79.6689V459.7C79.9395 459.317 80.3035 459.023 80.7609 458.818C81.2275 458.613 81.7549 458.51 82.3429 458.51ZM90.9062 456.634C90.1035 456.634 89.7022 457.068 89.7022 457.936V458.58H91.8582V459.686H89.7302V466H88.3862V459.686H87.1262V458.58H88.3862V457.922C88.3862 457.185 88.6008 456.601 89.0302 456.172C89.4595 455.743 90.0615 455.528 90.8362 455.528C91.1348 455.528 91.4148 455.565 91.6762 455.64C91.9375 455.715 92.1615 455.822 92.3482 455.962L91.9422 456.984C91.6342 456.751 91.2888 456.634 90.9062 456.634ZM94.2522 458.58H95.5962V466H94.2522V458.58ZM94.9242 457.152C94.6628 457.152 94.4435 457.068 94.2662 456.9C94.0982 456.732 94.0142 456.527 94.0142 456.284C94.0142 456.041 94.0982 455.836 94.2662 455.668C94.4435 455.491 94.6628 455.402 94.9242 455.402C95.1855 455.402 95.4002 455.486 95.5682 455.654C95.7455 455.813 95.8342 456.013 95.8342 456.256C95.8342 456.508 95.7455 456.723 95.5682 456.9C95.4002 457.068 95.1855 457.152 94.9242 457.152ZM99.725 459.826C99.9583 459.397 100.304 459.07 100.761 458.846C101.218 458.622 101.774 458.51 102.427 458.51V459.812C102.352 459.803 102.25 459.798 102.119 459.798C101.391 459.798 100.817 460.017 100.397 460.456C99.9863 460.885 99.781 461.501 99.781 462.304V466H98.437V458.58H99.725V459.826ZM113.645 458.51C114.579 458.51 115.316 458.781 115.857 459.322C116.408 459.863 116.683 460.666 116.683 461.73V466H115.339V461.884C115.339 461.165 115.171 460.624 114.835 460.26C114.509 459.896 114.037 459.714 113.421 459.714C112.74 459.714 112.199 459.929 111.797 460.358C111.396 460.778 111.195 461.385 111.195 462.178V466H109.851V461.884C109.851 461.165 109.683 460.624 109.347 460.26C109.021 459.896 108.549 459.714 107.933 459.714C107.252 459.714 106.711 459.929 106.309 460.358C105.908 460.778 105.707 461.385 105.707 462.178V466H104.363V458.58H105.651V459.686C105.922 459.303 106.277 459.014 106.715 458.818C107.154 458.613 107.653 458.51 108.213 458.51C108.792 458.51 109.305 458.627 109.753 458.86C110.201 459.093 110.547 459.434 110.789 459.882C111.069 459.453 111.457 459.117 111.951 458.874C112.455 458.631 113.02 458.51 113.645 458.51ZM126.183 462.332C126.183 462.435 126.174 462.57 126.155 462.738H120.135C120.219 463.391 120.504 463.919 120.989 464.32C121.484 464.712 122.095 464.908 122.823 464.908C123.71 464.908 124.424 464.609 124.965 464.012L125.707 464.88C125.371 465.272 124.951 465.571 124.447 465.776C123.953 465.981 123.397 466.084 122.781 466.084C121.997 466.084 121.302 465.925 120.695 465.608C120.089 465.281 119.617 464.829 119.281 464.25C118.955 463.671 118.791 463.018 118.791 462.29C118.791 461.571 118.95 460.923 119.267 460.344C119.594 459.765 120.037 459.317 120.597 459C121.167 458.673 121.806 458.51 122.515 458.51C123.225 458.51 123.855 458.673 124.405 459C124.965 459.317 125.399 459.765 125.707 460.344C126.025 460.923 126.183 461.585 126.183 462.332ZM122.515 459.644C121.871 459.644 121.33 459.84 120.891 460.232C120.462 460.624 120.21 461.137 120.135 461.772H124.895C124.821 461.147 124.564 460.638 124.125 460.246C123.696 459.845 123.159 459.644 122.515 459.644ZM129.618 459.826C129.851 459.397 130.196 459.07 130.654 458.846C131.111 458.622 131.666 458.51 132.32 458.51V459.812C132.245 459.803 132.142 459.798 132.012 459.798C131.284 459.798 130.71 460.017 130.29 460.456C129.879 460.885 129.674 461.501 129.674 462.304V466H128.33V458.58H129.618V459.826ZM138.392 455.612H139.736V466H138.392V455.612ZM149.288 462.332C149.288 462.435 149.278 462.57 149.26 462.738H143.24C143.324 463.391 143.608 463.919 144.094 464.32C144.588 464.712 145.2 464.908 145.928 464.908C146.814 464.908 147.528 464.609 148.07 464.012L148.812 464.88C148.476 465.272 148.056 465.571 147.552 465.776C147.057 465.981 146.502 466.084 145.886 466.084C145.102 466.084 144.406 465.925 143.8 465.608C143.193 465.281 142.722 464.829 142.386 464.25C142.059 463.671 141.896 463.018 141.896 462.29C141.896 461.571 142.054 460.923 142.372 460.344C142.698 459.765 143.142 459.317 143.702 459C144.271 458.673 144.91 458.51 145.62 458.51C146.329 458.51 146.959 458.673 147.51 459C148.07 459.317 148.504 459.765 148.812 460.344C149.129 460.923 149.288 461.585 149.288 462.332ZM145.62 459.644C144.976 459.644 144.434 459.84 143.996 460.232C143.566 460.624 143.314 461.137 143.24 461.772H148C147.925 461.147 147.668 460.638 147.23 460.246C146.8 459.845 146.264 459.644 145.62 459.644ZM164.756 458.51C165.689 458.51 166.427 458.781 166.968 459.322C167.519 459.863 167.794 460.666 167.794 461.73V466H166.45V461.884C166.45 461.165 166.282 460.624 165.946 460.26C165.619 459.896 165.148 459.714 164.532 459.714C163.851 459.714 163.309 459.929 162.908 460.358C162.507 460.778 162.306 461.385 162.306 462.178V466H160.962V461.884C160.962 461.165 160.794 460.624 160.458 460.26C160.131 459.896 159.66 459.714 159.044 459.714C158.363 459.714 157.821 459.929 157.42 460.358C157.019 460.778 156.818 461.385 156.818 462.178V466H155.474V458.58H156.762V459.686C157.033 459.303 157.387 459.014 157.826 458.818C158.265 458.613 158.764 458.51 159.324 458.51C159.903 458.51 160.416 458.627 160.864 458.86C161.312 459.093 161.657 459.434 161.9 459.882C162.18 459.453 162.567 459.117 163.062 458.874C163.566 458.631 164.131 458.51 164.756 458.51ZM173.766 466.084C173.028 466.084 172.366 465.921 171.778 465.594C171.19 465.267 170.728 464.819 170.392 464.25C170.065 463.671 169.902 463.018 169.902 462.29C169.902 461.562 170.065 460.913 170.392 460.344C170.728 459.765 171.19 459.317 171.778 459C172.366 458.673 173.028 458.51 173.766 458.51C174.503 458.51 175.161 458.673 175.74 459C176.328 459.317 176.785 459.765 177.112 460.344C177.448 460.913 177.616 461.562 177.616 462.29C177.616 463.018 177.448 463.671 177.112 464.25C176.785 464.819 176.328 465.267 175.74 465.594C175.161 465.921 174.503 466.084 173.766 466.084ZM173.766 464.908C174.242 464.908 174.666 464.801 175.04 464.586C175.422 464.362 175.721 464.054 175.936 463.662C176.15 463.261 176.258 462.803 176.258 462.29C176.258 461.777 176.15 461.324 175.936 460.932C175.721 460.531 175.422 460.223 175.04 460.008C174.666 459.793 174.242 459.686 173.766 459.686C173.29 459.686 172.86 459.793 172.478 460.008C172.104 460.223 171.806 460.531 171.582 460.932C171.367 461.324 171.26 461.777 171.26 462.29C171.26 462.803 171.367 463.261 171.582 463.662C171.806 464.054 172.104 464.362 172.478 464.586C172.86 464.801 173.29 464.908 173.766 464.908ZM183.927 465.566C183.731 465.734 183.488 465.865 183.199 465.958C182.909 466.042 182.611 466.084 182.303 466.084C181.556 466.084 180.977 465.883 180.567 465.482C180.156 465.081 179.951 464.507 179.951 463.76V459.686H178.691V458.58H179.951V456.956H181.295V458.58H183.423V459.686H181.295V463.704C181.295 464.105 181.393 464.413 181.589 464.628C181.794 464.843 182.083 464.95 182.457 464.95C182.867 464.95 183.217 464.833 183.507 464.6L183.927 465.566ZM196.871 455.612V466H195.583V464.824C195.285 465.235 194.907 465.547 194.449 465.762C193.992 465.977 193.488 466.084 192.937 466.084C192.219 466.084 191.575 465.925 191.005 465.608C190.436 465.291 189.988 464.847 189.661 464.278C189.344 463.699 189.185 463.037 189.185 462.29C189.185 461.543 189.344 460.885 189.661 460.316C189.988 459.747 190.436 459.303 191.005 458.986C191.575 458.669 192.219 458.51 192.937 458.51C193.469 458.51 193.959 458.613 194.407 458.818C194.855 459.014 195.229 459.308 195.527 459.7V455.612H196.871ZM193.049 464.908C193.516 464.908 193.941 464.801 194.323 464.586C194.706 464.362 195.005 464.054 195.219 463.662C195.434 463.261 195.541 462.803 195.541 462.29C195.541 461.777 195.434 461.324 195.219 460.932C195.005 460.531 194.706 460.223 194.323 460.008C193.941 459.793 193.516 459.686 193.049 459.686C192.573 459.686 192.144 459.793 191.761 460.008C191.388 460.223 191.089 460.531 190.865 460.932C190.651 461.324 190.543 461.777 190.543 462.29C190.543 462.803 190.651 463.261 190.865 463.662C191.089 464.054 191.388 464.362 191.761 464.586C192.144 464.801 192.573 464.908 193.049 464.908ZM206.4 462.332C206.4 462.435 206.391 462.57 206.372 462.738H200.352C200.436 463.391 200.721 463.919 201.206 464.32C201.701 464.712 202.312 464.908 203.04 464.908C203.927 464.908 204.641 464.609 205.182 464.012L205.924 464.88C205.588 465.272 205.168 465.571 204.664 465.776C204.169 465.981 203.614 466.084 202.998 466.084C202.214 466.084 201.519 465.925 200.912 465.608C200.305 465.281 199.834 464.829 199.498 464.25C199.171 463.671 199.008 463.018 199.008 462.29C199.008 461.571 199.167 460.923 199.484 460.344C199.811 459.765 200.254 459.317 200.814 459C201.383 458.673 202.023 458.51 202.732 458.51C203.441 458.51 204.071 458.673 204.622 459C205.182 459.317 205.616 459.765 205.924 460.344C206.241 460.923 206.4 461.585 206.4 462.332ZM202.732 459.644C202.088 459.644 201.547 459.84 201.108 460.232C200.679 460.624 200.427 461.137 200.352 461.772H205.112C205.037 461.147 204.781 460.638 204.342 460.246C203.913 459.845 203.376 459.644 202.732 459.644ZM216.52 458.51C217.239 458.51 217.883 458.669 218.452 458.986C219.022 459.303 219.465 459.747 219.782 460.316C220.109 460.885 220.272 461.543 220.272 462.29C220.272 463.037 220.109 463.699 219.782 464.278C219.465 464.847 219.022 465.291 218.452 465.608C217.883 465.925 217.239 466.084 216.52 466.084C215.988 466.084 215.498 465.981 215.05 465.776C214.612 465.571 214.238 465.272 213.93 464.88V468.716H212.586V458.58H213.874V459.756C214.173 459.345 214.551 459.037 215.008 458.832C215.466 458.617 215.97 458.51 216.52 458.51ZM216.408 464.908C216.884 464.908 217.309 464.801 217.682 464.586C218.065 464.362 218.364 464.054 218.578 463.662C218.802 463.261 218.914 462.803 218.914 462.29C218.914 461.777 218.802 461.324 218.578 460.932C218.364 460.531 218.065 460.223 217.682 460.008C217.309 459.793 216.884 459.686 216.408 459.686C215.942 459.686 215.517 459.798 215.134 460.022C214.761 460.237 214.462 460.54 214.238 460.932C214.024 461.324 213.916 461.777 213.916 462.29C213.916 462.803 214.024 463.261 214.238 463.662C214.453 464.054 214.752 464.362 215.134 464.586C215.517 464.801 215.942 464.908 216.408 464.908ZM225.043 458.51C226.069 458.51 226.853 458.762 227.395 459.266C227.945 459.77 228.221 460.521 228.221 461.52V466H226.947V465.02C226.723 465.365 226.401 465.631 225.981 465.818C225.57 465.995 225.08 466.084 224.511 466.084C223.68 466.084 223.013 465.883 222.509 465.482C222.014 465.081 221.767 464.553 221.767 463.9C221.767 463.247 222.005 462.724 222.481 462.332C222.957 461.931 223.713 461.73 224.749 461.73H226.877V461.464C226.877 460.885 226.709 460.442 226.373 460.134C226.037 459.826 225.542 459.672 224.889 459.672C224.45 459.672 224.021 459.747 223.601 459.896C223.181 460.036 222.826 460.227 222.537 460.47L221.977 459.462C222.359 459.154 222.817 458.921 223.349 458.762C223.881 458.594 224.445 458.51 225.043 458.51ZM224.735 465.048C225.248 465.048 225.691 464.936 226.065 464.712C226.438 464.479 226.709 464.152 226.877 463.732V462.696H224.805C223.666 462.696 223.097 463.079 223.097 463.844C223.097 464.217 223.241 464.511 223.531 464.726C223.82 464.941 224.221 465.048 224.735 465.048ZM233.116 466.084C232.509 466.084 231.926 466.005 231.366 465.846C230.806 465.678 230.367 465.468 230.05 465.216L230.61 464.152C230.937 464.385 231.333 464.572 231.8 464.712C232.267 464.852 232.738 464.922 233.214 464.922C234.39 464.922 234.978 464.586 234.978 463.914C234.978 463.69 234.899 463.513 234.74 463.382C234.581 463.251 234.381 463.158 234.138 463.102C233.905 463.037 233.569 462.967 233.13 462.892C232.533 462.799 232.043 462.691 231.66 462.57C231.287 462.449 230.965 462.243 230.694 461.954C230.423 461.665 230.288 461.259 230.288 460.736C230.288 460.064 230.568 459.527 231.128 459.126C231.688 458.715 232.439 458.51 233.382 458.51C233.877 458.51 234.371 458.571 234.866 458.692C235.361 458.813 235.767 458.977 236.084 459.182L235.51 460.246C234.903 459.854 234.189 459.658 233.368 459.658C232.799 459.658 232.365 459.751 232.066 459.938C231.767 460.125 231.618 460.372 231.618 460.68C231.618 460.923 231.702 461.114 231.87 461.254C232.038 461.394 232.243 461.497 232.486 461.562C232.738 461.627 233.088 461.702 233.536 461.786C234.133 461.889 234.614 462.001 234.978 462.122C235.351 462.234 235.669 462.43 235.93 462.71C236.191 462.99 236.322 463.382 236.322 463.886C236.322 464.558 236.033 465.095 235.454 465.496C234.885 465.888 234.105 466.084 233.116 466.084ZM240.41 466.084C239.803 466.084 239.22 466.005 238.66 465.846C238.1 465.678 237.661 465.468 237.344 465.216L237.904 464.152C238.23 464.385 238.627 464.572 239.094 464.712C239.56 464.852 240.032 464.922 240.508 464.922C241.684 464.922 242.272 464.586 242.272 463.914C242.272 463.69 242.192 463.513 242.034 463.382C241.875 463.251 241.674 463.158 241.432 463.102C241.198 463.037 240.862 462.967 240.424 462.892C239.826 462.799 239.336 462.691 238.954 462.57C238.58 462.449 238.258 462.243 237.988 461.954C237.717 461.665 237.582 461.259 237.582 460.736C237.582 460.064 237.862 459.527 238.422 459.126C238.982 458.715 239.733 458.51 240.676 458.51C241.17 458.51 241.665 458.571 242.16 458.692C242.654 458.813 243.06 458.977 243.378 459.182L242.804 460.246C242.197 459.854 241.483 459.658 240.662 459.658C240.092 459.658 239.658 459.751 239.36 459.938C239.061 460.125 238.912 460.372 238.912 460.68C238.912 460.923 238.996 461.114 239.164 461.254C239.332 461.394 239.537 461.497 239.78 461.562C240.032 461.627 240.382 461.702 240.83 461.786C241.427 461.889 241.908 462.001 242.272 462.122C242.645 462.234 242.962 462.43 243.224 462.71C243.485 462.99 243.616 463.382 243.616 463.886C243.616 464.558 243.326 465.095 242.748 465.496C242.178 465.888 241.399 466.084 240.41 466.084ZM252.281 462.332C252.281 462.435 252.272 462.57 252.253 462.738H246.233C246.317 463.391 246.602 463.919 247.087 464.32C247.582 464.712 248.193 464.908 248.921 464.908C249.808 464.908 250.522 464.609 251.063 464.012L251.805 464.88C251.469 465.272 251.049 465.571 250.545 465.776C250.051 465.981 249.495 466.084 248.879 466.084C248.095 466.084 247.4 465.925 246.793 465.608C246.187 465.281 245.715 464.829 245.379 464.25C245.053 463.671 244.889 463.018 244.889 462.29C244.889 461.571 245.048 460.923 245.365 460.344C245.692 459.765 246.135 459.317 246.695 459C247.265 458.673 247.904 458.51 248.613 458.51C249.323 458.51 249.953 458.673 250.503 459C251.063 459.317 251.497 459.765 251.805 460.344C252.123 460.923 252.281 461.585 252.281 462.332ZM248.613 459.644C247.969 459.644 247.428 459.84 246.989 460.232C246.56 460.624 246.308 461.137 246.233 461.772H250.993C250.919 461.147 250.662 460.638 250.223 460.246C249.794 459.845 249.257 459.644 248.613 459.644Z" fill="#AAAAAA"/>
<rect x="285.25" y="142.25" width="198.5" height="36.5" fill="black" stroke="white" stroke-width="0.5"/>
<path d="M303.163 158.2C304.432 158.2 305.431 158.503 306.159 159.11C306.887 159.717 307.251 160.552 307.251 161.616C307.251 162.68 306.887 163.515 306.159 164.122C305.431 164.729 304.432 165.032 303.163 165.032H300.741V168H299.341V158.2H303.163ZM303.121 163.814C304.008 163.814 304.684 163.627 305.151 163.254C305.618 162.871 305.851 162.325 305.851 161.616C305.851 160.907 305.618 160.365 305.151 159.992C304.684 159.609 304.008 159.418 303.121 159.418H300.741V163.814H303.121ZM310.557 161.826C310.79 161.397 311.136 161.07 311.593 160.846C312.05 160.622 312.606 160.51 313.259 160.51V161.812C313.184 161.803 313.082 161.798 312.951 161.798C312.223 161.798 311.649 162.017 311.229 162.456C310.818 162.885 310.613 163.501 310.613 164.304V168H309.269V160.58H310.557V161.826ZM321.833 164.332C321.833 164.435 321.824 164.57 321.805 164.738H315.785C315.869 165.391 316.154 165.919 316.639 166.32C317.134 166.712 317.745 166.908 318.473 166.908C319.36 166.908 320.074 166.609 320.615 166.012L321.357 166.88C321.021 167.272 320.601 167.571 320.097 167.776C319.602 167.981 319.047 168.084 318.431 168.084C317.647 168.084 316.952 167.925 316.345 167.608C315.738 167.281 315.267 166.829 314.931 166.25C314.604 165.671 314.441 165.018 314.441 164.29C314.441 163.571 314.6 162.923 314.917 162.344C315.244 161.765 315.687 161.317 316.247 161C316.816 160.673 317.456 160.51 318.165 160.51C318.874 160.51 319.504 160.673 320.055 161C320.615 161.317 321.049 161.765 321.357 162.344C321.674 162.923 321.833 163.585 321.833 164.332ZM318.165 161.644C317.521 161.644 316.98 161.84 316.541 162.232C316.112 162.624 315.86 163.137 315.785 163.772H320.545C320.47 163.147 320.214 162.638 319.775 162.246C319.346 161.845 318.809 161.644 318.165 161.644ZM319.005 157.682H320.713L318.361 159.502H317.101L319.005 157.682ZM327.941 160.51C328.884 160.51 329.631 160.785 330.181 161.336C330.741 161.877 331.021 162.675 331.021 163.73V168H329.677V163.884C329.677 163.165 329.505 162.624 329.159 162.26C328.814 161.896 328.319 161.714 327.675 161.714C326.947 161.714 326.373 161.929 325.953 162.358C325.533 162.778 325.323 163.385 325.323 164.178V168H323.979V160.58H325.267V161.7C325.538 161.317 325.902 161.023 326.359 160.818C326.826 160.613 327.353 160.51 327.941 160.51ZM337.008 168.084C336.27 168.084 335.608 167.921 335.02 167.594C334.432 167.267 333.97 166.819 333.634 166.25C333.307 165.671 333.144 165.018 333.144 164.29C333.144 163.562 333.307 162.913 333.634 162.344C333.97 161.765 334.432 161.317 335.02 161C335.608 160.673 336.27 160.51 337.008 160.51C337.745 160.51 338.403 160.673 338.982 161C339.57 161.317 340.027 161.765 340.354 162.344C340.69 162.913 340.858 163.562 340.858 164.29C340.858 165.018 340.69 165.671 340.354 166.25C340.027 166.819 339.57 167.267 338.982 167.594C338.403 167.921 337.745 168.084 337.008 168.084ZM337.008 166.908C337.484 166.908 337.908 166.801 338.282 166.586C338.664 166.362 338.963 166.054 339.178 165.662C339.392 165.261 339.5 164.803 339.5 164.29C339.5 163.777 339.392 163.324 339.178 162.932C338.963 162.531 338.664 162.223 338.282 162.008C337.908 161.793 337.484 161.686 337.008 161.686C336.532 161.686 336.102 161.793 335.72 162.008C335.346 162.223 335.048 162.531 334.824 162.932C334.609 163.324 334.502 163.777 334.502 164.29C334.502 164.803 334.609 165.261 334.824 165.662C335.048 166.054 335.346 166.362 335.72 166.586C336.102 166.801 336.532 166.908 337.008 166.908ZM352.278 160.51C353.212 160.51 353.949 160.781 354.49 161.322C355.041 161.863 355.316 162.666 355.316 163.73V168H353.972V163.884C353.972 163.165 353.804 162.624 353.468 162.26C353.142 161.896 352.67 161.714 352.054 161.714C351.373 161.714 350.832 161.929 350.43 162.358C350.029 162.778 349.828 163.385 349.828 164.178V168H348.484V163.884C348.484 163.165 348.316 162.624 347.98 162.26C347.654 161.896 347.182 161.714 346.566 161.714C345.885 161.714 345.344 161.929 344.942 162.358C344.541 162.778 344.34 163.385 344.34 164.178V168H342.996V160.58H344.284V161.686C344.555 161.303 344.91 161.014 345.348 160.818C345.787 160.613 346.286 160.51 346.846 160.51C347.425 160.51 347.938 160.627 348.386 160.86C348.834 161.093 349.18 161.434 349.422 161.882C349.702 161.453 350.09 161.117 350.584 160.874C351.088 160.631 351.653 160.51 352.278 160.51Z" fill="#AAAAAA"/>
<path d="M193.1 96H195.1V110H193.1V96ZM205.071 99.3C206.418 99.3 207.485 99.6933 208.271 100.48C209.071 101.253 209.471 102.393 209.471 103.9V110H207.551V104.12C207.551 103.093 207.305 102.32 206.811 101.8C206.318 101.28 205.611 101.02 204.691 101.02C203.651 101.02 202.831 101.327 202.231 101.94C201.631 102.54 201.331 103.407 201.331 104.54V110H199.411V99.4H201.251V101C201.638 100.453 202.158 100.033 202.811 99.74C203.478 99.4467 204.231 99.3 205.071 99.3ZM216.465 110.12C215.598 110.12 214.765 110.007 213.965 109.78C213.165 109.54 212.538 109.24 212.085 108.88L212.885 107.36C213.351 107.693 213.918 107.96 214.585 108.16C215.251 108.36 215.925 108.46 216.605 108.46C218.285 108.46 219.125 107.98 219.125 107.02C219.125 106.7 219.011 106.447 218.785 106.26C218.558 106.073 218.271 105.94 217.925 105.86C217.591 105.767 217.111 105.667 216.485 105.56C215.631 105.427 214.931 105.273 214.385 105.1C213.851 104.927 213.391 104.633 213.005 104.22C212.618 103.807 212.425 103.227 212.425 102.48C212.425 101.52 212.825 100.753 213.625 100.18C214.425 99.5933 215.498 99.3 216.845 99.3C217.551 99.3 218.258 99.3867 218.965 99.56C219.671 99.7333 220.251 99.9667 220.705 100.26L219.885 101.78C219.018 101.22 217.998 100.94 216.825 100.94C216.011 100.94 215.391 101.073 214.965 101.34C214.538 101.607 214.325 101.96 214.325 102.4C214.325 102.747 214.445 103.02 214.685 103.22C214.925 103.42 215.218 103.567 215.565 103.66C215.925 103.753 216.425 103.86 217.065 103.98C217.918 104.127 218.605 104.287 219.125 104.46C219.658 104.62 220.111 104.9 220.485 105.3C220.858 105.7 221.045 106.26 221.045 106.98C221.045 107.94 220.631 108.707 219.805 109.28C218.991 109.84 217.878 110.12 216.465 110.12ZM228.464 110.12C227.384 110.12 226.418 109.887 225.564 109.42C224.724 108.953 224.064 108.313 223.584 107.5C223.104 106.673 222.864 105.74 222.864 104.7C222.864 103.66 223.104 102.733 223.584 101.92C224.064 101.093 224.724 100.453 225.564 100C226.418 99.5333 227.384 99.3 228.464 99.3C229.424 99.3 230.278 99.4933 231.024 99.88C231.784 100.267 232.371 100.827 232.784 101.56L231.324 102.5C230.991 101.993 230.578 101.613 230.084 101.36C229.591 101.107 229.044 100.98 228.444 100.98C227.751 100.98 227.124 101.133 226.564 101.44C226.018 101.747 225.584 102.187 225.264 102.76C224.958 103.32 224.804 103.967 224.804 104.7C224.804 105.447 224.958 106.107 225.264 106.68C225.584 107.24 226.018 107.673 226.564 107.98C227.124 108.287 227.751 108.44 228.444 108.44C229.044 108.44 229.591 108.313 230.084 108.06C230.578 107.807 230.991 107.427 231.324 106.92L232.784 107.84C232.371 108.573 231.784 109.14 231.024 109.54C230.278 109.927 229.424 110.12 228.464 110.12ZM237.51 101.18C237.843 100.567 238.337 100.1 238.99 99.78C239.643 99.46 240.437 99.3 241.37 99.3V101.16C241.263 101.147 241.117 101.14 240.93 101.14C239.89 101.14 239.07 101.453 238.47 102.08C237.883 102.693 237.59 103.573 237.59 104.72V110H235.67V99.4H237.51V101.18ZM244.136 99.4H246.056V110H244.136V99.4ZM245.096 97.36C244.723 97.36 244.41 97.24 244.156 97C243.916 96.76 243.796 96.4667 243.796 96.12C243.796 95.7733 243.916 95.48 244.156 95.24C244.41 94.9867 244.723 94.86 245.096 94.86C245.47 94.86 245.776 94.98 246.016 95.22C246.27 95.4467 246.396 95.7333 246.396 96.08C246.396 96.44 246.27 96.7467 246.016 97C245.776 97.24 245.47 97.36 245.096 97.36ZM259.502 99.4L254.862 110H252.902L248.262 99.4H250.262L253.902 107.9L257.622 99.4H259.502ZM270.981 104.76C270.981 104.907 270.968 105.1 270.941 105.34H262.341C262.461 106.273 262.868 107.027 263.561 107.6C264.268 108.16 265.141 108.44 266.181 108.44C267.448 108.44 268.468 108.013 269.241 107.16L270.301 108.4C269.821 108.96 269.221 109.387 268.501 109.68C267.795 109.973 267.001 110.12 266.121 110.12C265.001 110.12 264.008 109.893 263.141 109.44C262.275 108.973 261.601 108.327 261.121 107.5C260.655 106.673 260.421 105.74 260.421 104.7C260.421 103.673 260.648 102.747 261.101 101.92C261.568 101.093 262.201 100.453 263.001 100C263.815 99.5333 264.728 99.3 265.741 99.3C266.755 99.3 267.655 99.5333 268.441 100C269.241 100.453 269.861 101.093 270.301 101.92C270.755 102.747 270.981 103.693 270.981 104.76ZM265.741 100.92C264.821 100.92 264.048 101.2 263.421 101.76C262.808 102.32 262.448 103.053 262.341 103.96H269.141C269.035 103.067 268.668 102.34 268.041 101.78C267.428 101.207 266.661 100.92 265.741 100.92ZM281.81 108.42V110H272.93V108.76L279.19 100.98H273.05V99.4H281.65V100.66L275.39 108.42H281.81ZM283.845 103.68H289.225V105.34H283.845V103.68ZM301.708 99.4L297.068 110H295.108L290.468 99.4H292.468L296.108 107.9L299.828 99.4H301.708ZM308.147 110.12C307.093 110.12 306.147 109.887 305.307 109.42C304.467 108.953 303.807 108.313 303.327 107.5C302.86 106.673 302.627 105.74 302.627 104.7C302.627 103.66 302.86 102.733 303.327 101.92C303.807 101.093 304.467 100.453 305.307 100C306.147 99.5333 307.093 99.3 308.147 99.3C309.2 99.3 310.14 99.5333 310.967 100C311.807 100.453 312.46 101.093 312.927 101.92C313.407 102.733 313.647 103.66 313.647 104.7C313.647 105.74 313.407 106.673 312.927 107.5C312.46 108.313 311.807 108.953 310.967 109.42C310.14 109.887 309.2 110.12 308.147 110.12ZM308.147 108.44C308.827 108.44 309.433 108.287 309.967 107.98C310.513 107.66 310.94 107.22 311.247 106.66C311.553 106.087 311.707 105.433 311.707 104.7C311.707 103.967 311.553 103.32 311.247 102.76C310.94 102.187 310.513 101.747 309.967 101.44C309.433 101.133 308.827 100.98 308.147 100.98C307.467 100.98 306.853 101.133 306.307 101.44C305.773 101.747 305.347 102.187 305.027 102.76C304.72 103.32 304.567 103.967 304.567 104.7C304.567 105.433 304.72 106.087 305.027 106.66C305.347 107.22 305.773 107.66 306.307 107.98C306.853 108.287 307.467 108.44 308.147 108.44ZM326.582 99.4V110H324.762V108.4C324.375 108.947 323.862 109.373 323.222 109.68C322.595 109.973 321.909 110.12 321.162 110.12C319.749 110.12 318.635 109.733 317.822 108.96C317.009 108.173 316.602 107.02 316.602 105.5V99.4H318.522V105.28C318.522 106.307 318.769 107.087 319.262 107.62C319.755 108.14 320.462 108.4 321.382 108.4C322.395 108.4 323.195 108.093 323.782 107.48C324.369 106.867 324.662 106 324.662 104.88V99.4H326.582ZM333.677 110.12C332.811 110.12 331.977 110.007 331.177 109.78C330.377 109.54 329.751 109.24 329.297 108.88L330.097 107.36C330.564 107.693 331.131 107.96 331.797 108.16C332.464 108.36 333.137 108.46 333.817 108.46C335.497 108.46 336.337 107.98 336.337 107.02C336.337 106.7 336.224 106.447 335.997 106.26C335.771 106.073 335.484 105.94 335.137 105.86C334.804 105.767 334.324 105.667 333.697 105.56C332.844 105.427 332.144 105.273 331.597 105.1C331.064 104.927 330.604 104.633 330.217 104.22C329.831 103.807 329.637 103.227 329.637 102.48C329.637 101.52 330.037 100.753 330.837 100.18C331.637 99.5933 332.711 99.3 334.057 99.3C334.764 99.3 335.471 99.3867 336.177 99.56C336.884 99.7333 337.464 99.9667 337.917 100.26L337.097 101.78C336.231 101.22 335.211 100.94 334.037 100.94C333.224 100.94 332.604 101.073 332.177 101.34C331.751 101.607 331.537 101.96 331.537 102.4C331.537 102.747 331.657 103.02 331.897 103.22C332.137 103.42 332.431 103.567 332.777 103.66C333.137 103.753 333.637 103.86 334.277 103.98C335.131 104.127 335.817 104.287 336.337 104.46C336.871 104.62 337.324 104.9 337.697 105.3C338.071 105.7 338.257 106.26 338.257 106.98C338.257 107.94 337.844 108.707 337.017 109.28C336.204 109.84 335.091 110.12 333.677 110.12Z" fill="white"/>
<rect x="259.74" y="16.416" width="6.91376" height="51.242" fill="url(#paint0_linear_374_169)"/>
<rect x="276.049" y="67.5837" width="6.91376" height="51.242" transform="rotate(-180 276.049 67.5837)" fill="url(#paint1_linear_374_169)"/>
<path d="M259.707 16.416L266.654 16.416L245.842 67.661L238.001 67.661L259.707 16.416Z" fill="url(#paint2_linear_374_169)"/>
<path d="M276.082 67.584L269.135 67.584L289.947 16.339L297.789 16.339L276.082 67.584Z" fill="url(#paint3_linear_374_169)"/>
<rect width="151" height="37" transform="translate(333 514)" fill="#B81E1E"/>
<path d="M366.417 537.59C365.377 537.59 364.437 537.36 363.597 536.9C362.767 536.44 362.112 535.805 361.632 534.995C361.162 534.175 360.927 533.26 360.927 532.25C360.927 531.24 361.162 530.33 361.632 529.52C362.112 528.7 362.772 528.06 363.612 527.6C364.452 527.14 365.392 526.91 366.432 526.91C367.212 526.91 367.932 527.04 368.592 527.3C369.252 527.56 369.812 527.94 370.272 528.44L369.567 529.145C368.747 528.315 367.712 527.9 366.462 527.9C365.632 527.9 364.877 528.09 364.197 528.47C363.517 528.85 362.982 529.37 362.592 530.03C362.212 530.69 362.022 531.43 362.022 532.25C362.022 533.07 362.212 533.81 362.592 534.47C362.982 535.13 363.517 535.65 364.197 536.03C364.877 536.41 365.632 536.6 366.462 536.6C367.722 536.6 368.757 536.18 369.567 535.34L370.272 536.045C369.812 536.545 369.247 536.93 368.577 537.2C367.917 537.46 367.197 537.59 366.417 537.59ZM375.586 537.575C374.826 537.575 374.141 537.405 373.531 537.065C372.921 536.715 372.441 536.235 372.091 535.625C371.741 535.015 371.566 534.325 371.566 533.555C371.566 532.785 371.741 532.095 372.091 531.485C372.441 530.875 372.921 530.4 373.531 530.06C374.141 529.72 374.826 529.55 375.586 529.55C376.346 529.55 377.031 529.72 377.641 530.06C378.251 530.4 378.726 530.875 379.066 531.485C379.416 532.095 379.591 532.785 379.591 533.555C379.591 534.325 379.416 535.015 379.066 535.625C378.726 536.235 378.251 536.715 377.641 537.065C377.031 537.405 376.346 537.575 375.586 537.575ZM375.586 536.63C376.146 536.63 376.646 536.505 377.086 536.255C377.536 535.995 377.886 535.63 378.136 535.16C378.386 534.69 378.511 534.155 378.511 533.555C378.511 532.955 378.386 532.42 378.136 531.95C377.886 531.48 377.536 531.12 377.086 530.87C376.646 530.61 376.146 530.48 375.586 530.48C375.026 530.48 374.521 530.61 374.071 530.87C373.631 531.12 373.281 531.48 373.021 531.95C372.771 532.42 372.646 532.955 372.646 533.555C372.646 534.155 372.771 534.69 373.021 535.16C373.281 535.63 373.631 535.995 374.071 536.255C374.521 536.505 375.026 536.63 375.586 536.63ZM391.906 529.55C392.896 529.55 393.671 529.835 394.231 530.405C394.801 530.975 395.086 531.815 395.086 532.925V537.5H394.021V533.03C394.021 532.21 393.821 531.585 393.421 531.155C393.031 530.725 392.476 530.51 391.756 530.51C390.936 530.51 390.291 530.765 389.821 531.275C389.351 531.775 389.116 532.47 389.116 533.36V537.5H388.051V533.03C388.051 532.21 387.851 531.585 387.451 531.155C387.061 530.725 386.501 530.51 385.771 530.51C384.961 530.51 384.316 530.765 383.836 531.275C383.366 531.775 383.131 532.47 383.131 533.36V537.5H382.066V529.61H383.086V531.05C383.366 530.57 383.756 530.2 384.256 529.94C384.756 529.68 385.331 529.55 385.981 529.55C386.641 529.55 387.211 529.69 387.691 529.97C388.181 530.25 388.546 530.665 388.786 531.215C389.076 530.695 389.491 530.29 390.031 530C390.581 529.7 391.206 529.55 391.906 529.55ZM408.114 529.55C409.104 529.55 409.879 529.835 410.439 530.405C411.009 530.975 411.294 531.815 411.294 532.925V537.5H410.229V533.03C410.229 532.21 410.029 531.585 409.629 531.155C409.239 530.725 408.684 530.51 407.964 530.51C407.144 530.51 406.499 530.765 406.029 531.275C405.559 531.775 405.324 532.47 405.324 533.36V537.5H404.259V533.03C404.259 532.21 404.059 531.585 403.659 531.155C403.269 530.725 402.709 530.51 401.979 530.51C401.169 530.51 400.524 530.765 400.044 531.275C399.574 531.775 399.339 532.47 399.339 533.36V537.5H398.274V529.61H399.294V531.05C399.574 530.57 399.964 530.2 400.464 529.94C400.964 529.68 401.539 529.55 402.189 529.55C402.849 529.55 403.419 529.69 403.899 529.97C404.389 530.25 404.754 530.665 404.994 531.215C405.284 530.695 405.699 530.29 406.239 530C406.789 529.7 407.414 529.55 408.114 529.55ZM421.381 533.885H414.781C414.841 534.705 415.156 535.37 415.726 535.88C416.296 536.38 417.016 536.63 417.886 536.63C418.376 536.63 418.826 536.545 419.236 536.375C419.646 536.195 420.001 535.935 420.301 535.595L420.901 536.285C420.551 536.705 420.111 537.025 419.581 537.245C419.061 537.465 418.486 537.575 417.856 537.575C417.046 537.575 416.326 537.405 415.696 537.065C415.076 536.715 414.591 536.235 414.241 535.625C413.891 535.015 413.716 534.325 413.716 533.555C413.716 532.785 413.881 532.095 414.211 531.485C414.551 530.875 415.011 530.4 415.591 530.06C416.181 529.72 416.841 529.55 417.571 529.55C418.301 529.55 418.956 529.72 419.536 530.06C420.116 530.4 420.571 530.875 420.901 531.485C421.231 532.085 421.396 532.775 421.396 533.555L421.381 533.885ZM417.571 530.465C416.811 530.465 416.171 530.71 415.651 531.2C415.141 531.68 414.851 532.31 414.781 533.09H420.376C420.306 532.31 420.011 531.68 419.491 531.2C418.981 530.71 418.341 530.465 417.571 530.465ZM427.884 529.55C428.874 529.55 429.659 529.84 430.239 530.42C430.829 530.99 431.124 531.825 431.124 532.925V537.5H430.059V533.03C430.059 532.21 429.854 531.585 429.444 531.155C429.034 530.725 428.449 530.51 427.689 530.51C426.839 530.51 426.164 530.765 425.664 531.275C425.174 531.775 424.929 532.47 424.929 533.36V537.5H423.864V529.61H424.884V531.065C425.174 530.585 425.574 530.215 426.084 529.955C426.604 529.685 427.204 529.55 427.884 529.55ZM437.615 537.575C436.835 537.575 436.135 537.405 435.515 537.065C434.905 536.725 434.425 536.25 434.075 535.64C433.725 535.02 433.55 534.325 433.55 533.555C433.55 532.785 433.725 532.095 434.075 531.485C434.425 530.875 434.905 530.4 435.515 530.06C436.135 529.72 436.835 529.55 437.615 529.55C438.295 529.55 438.9 529.685 439.43 529.955C439.97 530.215 440.395 530.6 440.705 531.11L439.91 531.65C439.65 531.26 439.32 530.97 438.92 530.78C438.52 530.58 438.085 530.48 437.615 530.48C437.045 530.48 436.53 530.61 436.07 530.87C435.62 531.12 435.265 531.48 435.005 531.95C434.755 532.42 434.63 532.955 434.63 533.555C434.63 534.165 434.755 534.705 435.005 535.175C435.265 535.635 435.62 535.995 436.07 536.255C436.53 536.505 437.045 536.63 437.615 536.63C438.085 536.63 438.52 536.535 438.92 536.345C439.32 536.155 439.65 535.865 439.91 535.475L440.705 536.015C440.395 536.525 439.97 536.915 439.43 537.185C438.89 537.445 438.285 537.575 437.615 537.575ZM449.835 533.885H443.235C443.295 534.705 443.61 535.37 444.18 535.88C444.75 536.38 445.47 536.63 446.34 536.63C446.83 536.63 447.28 536.545 447.69 536.375C448.1 536.195 448.455 535.935 448.755 535.595L449.355 536.285C449.005 536.705 448.565 537.025 448.035 537.245C447.515 537.465 446.94 537.575 446.31 537.575C445.5 537.575 444.78 537.405 444.15 537.065C443.53 536.715 443.045 536.235 442.695 535.625C442.345 535.015 442.17 534.325 442.17 533.555C442.17 532.785 442.335 532.095 442.665 531.485C443.005 530.875 443.465 530.4 444.045 530.06C444.635 529.72 445.295 529.55 446.025 529.55C446.755 529.55 447.41 529.72 447.99 530.06C448.57 530.4 449.025 530.875 449.355 531.485C449.685 532.085 449.85 532.775 449.85 533.555L449.835 533.885ZM446.025 530.465C445.265 530.465 444.625 530.71 444.105 531.2C443.595 531.68 443.305 532.31 443.235 533.09H448.83C448.76 532.31 448.465 531.68 447.945 531.2C447.435 530.71 446.795 530.465 446.025 530.465ZM453.338 531.155C453.588 530.625 453.958 530.225 454.448 529.955C454.948 529.685 455.563 529.55 456.293 529.55V530.585L456.038 530.57C455.208 530.57 454.558 530.825 454.088 531.335C453.618 531.845 453.383 532.56 453.383 533.48V537.5H452.318V529.61H453.338V531.155Z" fill="white"/>
<defs>
<linearGradient id="paint0_linear_374_169" x1="263.197" y1="16.416" x2="263.197" y2="67.6581" gradientUnits="userSpaceOnUse">
<stop stop-color="#E87816"/>
<stop offset="1" stop-color="#BF0501"/>
</linearGradient>
<linearGradient id="paint1_linear_374_169" x1="279.506" y1="67.5837" x2="279.506" y2="118.826" gradientUnits="userSpaceOnUse">
<stop stop-color="#E87816"/>
<stop offset="1" stop-color="#BF0501"/>
</linearGradient>
<linearGradient id="paint2_linear_374_169" x1="262.753" y1="17.995" x2="237.216" y2="67.2545" gradientUnits="userSpaceOnUse">
<stop stop-color="#E97916"/>
<stop offset="1" stop-color="#BD0000"/>
</linearGradient>
<linearGradient id="paint3_linear_374_169" x1="273.036" y1="66.005" x2="298.573" y2="16.7455" gradientUnits="userSpaceOnUse">
<stop stop-color="#E97916"/>
<stop offset="1" stop-color="#BD0000"/>
</linearGradient>
</defs>
</svg>
