<svg width="1300" height="1300" viewBox="0 0 1300 1300" fill="none" xmlns="http://www.w3.org/2000/svg">
<mask id="mask0_32_1414" style="mask-type:alpha" maskUnits="userSpaceOnUse" x="0" y="0" width="1300" height="1300">
<path d="M650 1300C290.71 1300 0 1008.86 0 650C0 290.71 291.141 0 650 0C1009.29 0 1300 291.141 1300 650C1300.43 1009.29 1009.29 1300 650 1300Z" fill="#F7C0B5"/>
</mask>
<g mask="url(#mask0_32_1414)">
<path d="M1014 1197.33C1010.97 1199.5 1007.5 1201.67 1004.47 1203.83C1001 1206 997.967 1208.17 994.5 1209.9C991.467 1211.63 988.867 1213.37 985.834 1215.1C985.4 1215.53 984.967 1215.53 984.534 1215.97C974.567 1222.03 964.167 1227.67 953.767 1232.87C950.734 1234.6 947.267 1236.33 944.234 1237.63C944.234 1237.63 943.8 1238.07 943.367 1238.07C939.9 1239.8 936.434 1241.53 932.967 1243.27C926.034 1246.73 918.667 1249.77 911.734 1252.8C908.267 1254.53 904.367 1255.83 900.9 1257.13C897.434 1258.43 893.534 1260.17 890.067 1261.47C886.6 1262.77 882.7 1264.5 879.234 1265.8C879.234 1265.8 879.234 1265.8 878.8 1265.8C875.334 1267.1 871.434 1268.4 867.967 1269.7C860.167 1272.3 851.934 1274.9 844.134 1277.5C841.534 1278.37 838.5 1279.23 835.9 1280.1C827.667 1282.7 819.434 1284.87 811.2 1286.6C808.167 1287.47 805.134 1287.9 801.667 1288.77C793.867 1290.5 785.634 1292.23 777.834 1293.97C776.1 1294.4 774.8 1294.4 773.067 1294.83C770.467 1295.27 767.434 1295.7 764.834 1296.13C760.934 1296.57 757.467 1297.43 753.567 1297.87C751.834 1298.3 750.1 1298.3 748.367 1298.73C746.2 1299.17 743.6 1299.6 741 1299.6C734.067 1300.47 726.7 1301.33 719.767 1302.2C717.6 1302.63 715 1302.63 712.834 1303.07H712.4C709.367 1303.5 706.334 1303.5 703.3 1303.93C700.267 1304.37 697.234 1304.37 694.2 1304.37C692.467 1304.37 690.3 1304.8 688.567 1304.8C685.1 1304.8 682.067 1305.23 679.034 1305.23C674.7 1305.23 670.8 1305.67 666.467 1305.67C662.134 1305.67 658.234 1305.67 653.901 1305.67C650.867 1305.67 647.834 1305.67 644.801 1305.67C462.367 1303.07 297.701 1225.5 180.701 1102.43C180.701 1102.43 180.701 1102 180.268 1102C193.701 1075.57 243.534 1027.9 295.534 988.466C361.401 938.633 454.567 907.866 454.567 907.866C454.567 907.866 515.667 897.899 742.3 945.133C915.2 981.533 988.867 1129.3 1014 1197.33Z" fill="#F7D3B5"/>
<path d="M790.401 1065.17C781.301 1109.8 722.368 1136.23 623.135 1096.37C501.368 1046.97 454.568 907.865 454.568 907.865C448.068 808.199 432.901 722.832 432.901 722.832C573.735 710.699 740.134 875.365 740.134 875.365L759.201 956.832C760.934 963.765 764.401 969.832 769.601 974.165C778.701 989.765 796.468 1036.57 790.401 1065.17Z" fill="#F7D3B5"/>
<path d="M769.601 974.599C686.834 970.265 625.734 958.132 560.301 840.699C615.767 889.665 681.201 908.299 750.101 916.965L759.201 956.832C760.934 964.199 764.401 970.265 769.601 974.599Z" fill="#EFBDA5"/>
<path d="M940.767 452.432C948.567 488.832 952.467 518.299 931.234 615.366C910 712.432 950.734 809.499 848.467 898.332C779.567 958.132 659.101 969.399 562.901 903.966C530.401 881.866 500.501 851.099 476.234 810.799C457.167 779.166 435.067 749.266 410.367 721.966C376.134 684.699 334.968 609.732 355.334 477.132C388.267 261.332 601.901 236.632 728 260.466C854.1 284.299 919.534 356.232 940.767 452.432Z" fill="#F7D3B5"/>
<path d="M526.067 621.867C526.067 621.867 512.634 556.867 449.367 564.667C394.767 571.6 375.701 702.467 499.634 738.867" fill="#F7D3B5"/>
<path d="M495.734 679.5C495.734 679.5 480.134 669.533 481.867 652.2C484.467 631.833 481.867 619.266 472.334 615.366C448.5 605.4 443.734 633.133 444.6 636.6" stroke="#423232" stroke-width="13.4786" stroke-miterlimit="10" stroke-linecap="round" stroke-linejoin="round"/>
<path d="M826.367 721.533C826.367 721.533 842.833 722.399 858.433 703.766C867.1 693.366 874.467 680.366 869.7 676.466C864.933 672.133 786.5 684.266 781.3 694.666C776.1 705.066 806.433 721.533 826.367 721.533Z" fill="#EFBDA5"/>
<path d="M839.367 575.931C839.367 575.931 840.234 617.098 866.667 663.031C878.367 683.398 860.601 716.764 822.034 722.398" stroke="#423232" stroke-width="13.4786" stroke-miterlimit="10" stroke-linecap="round" stroke-linejoin="round"/>
<path opacity="0.42" d="M604.5 743.632C629.15 743.632 649.133 727.142 649.133 706.799C649.133 686.457 629.15 669.966 604.5 669.966C579.849 669.966 559.866 686.457 559.866 706.799C559.866 727.142 579.849 743.632 604.5 743.632Z" fill="#ED938A"/>
<path opacity="0.42" d="M924.3 670.832C923 695.099 923.433 718.932 921.7 742.765C902.633 738.432 888.767 724.132 888.767 707.232C888.767 689.032 903.933 674.299 924.3 670.832Z" fill="#ED938A"/>
<path d="M905.624 1028.73C905.624 1028.73 838.457 965.901 772.157 950.734C772.157 950.734 828.057 1041.73 663.824 1024.83C536.424 1011.83 453.657 905.234 453.657 905.234C453.657 905.234 370.024 928.634 302.424 980.201C302.424 980.201 311.524 1113.23 463.624 1179.1C615.724 1244.97 827.624 1212.47 877.89 1170C928.157 1127.53 918.19 1042.6 905.624 1028.73Z" fill="#444444"/>
<path d="M265.156 1009.23C265.156 1009.23 137.756 1055.6 91.8228 1187.77C45.8895 1319.93 90.5228 1516.67 90.5228 1516.67H1104.52C1104.52 1516.67 1112.76 1288.3 1042.56 1161.33C1026.09 1131.87 980.589 1084.2 948.089 1069.03C948.089 1069.03 960.223 1180.83 768.256 1190.8C576.289 1200.77 345.323 1139.67 339.689 1104.13C334.489 1067.73 265.156 1009.23 265.156 1009.23Z" fill="white"/>
<path d="M994.023 1524.47C721.889 1650.13 273.823 1536.6 273.823 1536.6C273.823 1536.6 264.723 1426.1 297.656 1227.2C298.956 1218.1 300.256 1209 301.123 1200.77C310.656 1110.63 288.556 1048.67 265.156 1009.67C265.156 999.7 275.556 992.767 287.256 982.8C292.023 978.9 298.523 978.467 301.99 981.067C308.056 989.733 313.69 998.4 318.456 1007.5C366.99 1097.2 462.323 1144.87 563.723 1154.83C701.956 1168.7 759.589 1166.53 828.489 1151.37C894.789 1136.63 924.69 1097.63 906.056 1032.63C905.623 1031.77 905.623 1030.47 905.189 1029.17C916.889 1028.3 944.189 1050.83 953.289 1084.2C962.823 1125.37 970.189 1171.73 975.823 1218.1C994.456 1369.33 994.023 1524.47 994.023 1524.47Z" fill="#444444"/>
<path d="M366.122 940.334C366.122 940.334 450.189 1109.77 595.789 1202.5C609.222 1211.17 626.989 1207.7 636.522 1195.13L716.255 1091.13L810.722 1175.63C821.555 1185.6 839.322 1179.97 842.789 1165.67C851.022 1129.27 857.522 1061.67 826.755 971.534" stroke="white" stroke-width="13.4786" stroke-miterlimit="10" stroke-linecap="round" stroke-linejoin="round"/>
<path d="M737.056 1464.67C748.323 1335.1 716.256 1091.57 716.256 1091.57" stroke="white" stroke-width="13.4786" stroke-miterlimit="10" stroke-linecap="round" stroke-linejoin="round"/>
<path d="M783.855 1234.13C792.47 1234.13 799.455 1227.15 799.455 1218.53C799.455 1209.92 792.47 1202.93 783.855 1202.93C775.239 1202.93 768.255 1209.92 768.255 1218.53C768.255 1227.15 775.239 1234.13 783.855 1234.13Z" fill="white"/>
<path d="M790.788 1312.13C799.403 1312.13 806.388 1305.15 806.388 1296.53C806.388 1287.92 799.403 1280.93 790.788 1280.93C782.172 1280.93 775.188 1287.92 775.188 1296.53C775.188 1305.15 782.172 1312.13 790.788 1312.13Z" fill="white"/>
<path d="M698.923 1017.03C698.923 1017.03 632.623 976.734 605.323 983.667C577.59 990.601 587.123 1090.27 604.89 1106.3C622.657 1122.33 698.49 1071.2 703.257 1066.87C708.023 1062.53 705.857 1023.97 698.923 1017.03Z" fill="white"/>
<path d="M724.058 1017.47C724.058 1017.47 750.058 976.733 776.491 971.533C802.491 966.333 814.625 1076.4 802.925 1086.8C791.225 1096.77 736.625 1075.1 730.558 1068.17C724.058 1061.67 720.591 1030.9 724.058 1017.47Z" fill="white"/>
<path d="M751.79 1052.13C753.09 1028.3 736.19 1007.93 713.656 1005.77C691.123 1003.6 671.623 1020.93 669.456 1044.77C667.723 1069.03 684.623 1090.27 707.59 1092.43C730.99 1094.17 750.49 1076.4 751.79 1052.13Z" fill="#444444"/>
<path d="M669.456 1044.77C669.889 1061.67 678.989 1076.83 692.856 1084.2C706.289 1091.57 723.622 1089.4 734.889 1079C746.156 1069.03 750.489 1052.13 746.589 1037.4C742.689 1022.67 730.556 1009.23 713.656 1005.77C717.989 1005.77 721.889 1006.63 726.222 1007.93C730.122 1009.23 734.022 1011.4 737.489 1014C744.422 1019.2 750.056 1027 752.656 1035.23C755.689 1043.9 756.122 1053 753.956 1062.1C752.656 1066.43 750.922 1070.77 748.756 1074.67C746.589 1078.57 743.556 1082.03 740.089 1085.5C733.156 1091.57 724.489 1095.9 715.389 1096.33C706.289 1097.2 696.756 1095.03 689.389 1089.83C681.589 1085.07 675.956 1077.7 672.489 1069.9C669.022 1062.1 668.156 1053 669.456 1044.77Z" fill="white"/>
<path d="M699.71 590.25C699.71 590.683 699.71 591.117 699.71 591.117L699.277 603.25C698.844 613.65 690.177 621.45 679.777 621.017C669.377 620.583 661.577 611.483 662.444 601.517L662.877 589.383C662.877 587.217 663.744 584.617 664.61 582.883L699.277 584.617C699.277 586.35 699.71 588.083 699.71 590.25Z" fill="#423232"/>
<path d="M880.84 599.783L880.407 611.05C879.973 620.583 871.74 627.95 862.206 627.516C852.673 627.083 845.307 618.85 845.74 609.316L846.173 598.05C846.173 595.883 846.606 593.716 847.473 591.983L879.973 593.283C880.84 595.45 880.84 597.616 880.84 599.783Z" fill="#423232"/>
<path d="M743.041 530.881C752.574 532.181 759.941 522.215 756.474 512.681C754.741 507.481 751.707 502.715 746.941 499.681C732.207 490.581 677.174 489.715 648.141 510.515C622.574 529.581 699.707 524.815 743.041 530.881Z" fill="#423232"/>
<path d="M863.073 535.648C855.273 535.648 850.506 525.682 854.406 517.448C856.573 513.115 859.606 509.215 863.94 507.049C877.373 500.549 913.34 504.449 929.373 526.549C943.673 546.049 899.04 535.215 863.073 535.648Z" fill="#423232"/>
<path d="M727.876 585.482L698.843 584.182L664.176 582.882L656.376 582.449" stroke="#423232" stroke-width="13.4786" stroke-miterlimit="10" stroke-linecap="round" stroke-linejoin="round"/>
<path d="M899.04 594.15L879.973 593.283L847.473 591.983H846.173" stroke="#423232" stroke-width="13.4786" stroke-miterlimit="10" stroke-linecap="round" stroke-linejoin="round"/>
<path d="M816.925 774.866C805.693 779.808 800.301 769.924 782.779 778.46C770.199 784.301 763.46 786.098 748.184 777.113C738.299 770.823 726.169 779.808 714.487 762.735" stroke="#423232" stroke-width="13.4786" stroke-miterlimit="10" stroke-linecap="round" stroke-linejoin="round"/>
<path d="M947.251 445.323C945.951 438.823 944.217 431.89 942.051 425.39C939.884 418.89 934.684 413.257 927.751 411.957C905.217 408.057 883.551 369.057 852.351 364.723C753.117 351.29 686.817 359.523 593.651 395.923C497.451 433.19 600.584 567.956 531.684 612.156C528.217 600.023 511.317 550.623 455.851 557.556C403.417 564.056 383.484 685.39 491.817 726.99C444.584 804.123 448.051 773.356 413.384 731.756C378.717 690.156 309.384 582.256 356.184 424.523C402.984 266.79 614.884 184.457 812.051 264.623C845.851 278.49 866.217 312.723 895.684 318.357C1169.98 370.79 953.751 476.523 947.251 445.323Z" fill="#423232"/>
<path d="M680.751 363.422C680.751 363.422 643.917 352.589 621.817 410.222C599.717 467.856 522.584 547.156 458.451 454.856C394.317 362.989 490.517 289.322 590.617 319.222C690.717 349.122 679.451 326.589 680.751 363.422Z" fill="#423232"/>
<path d="M744.45 321.39C744.45 321.39 841.95 383.356 906.083 359.09C946.383 343.923 991.883 288.023 960.25 246.423C922.55 196.59 805.983 234.29 740.983 213.49C643.483 182.29 492.25 161.49 421.183 278.49C403.417 307.956 387.383 337.856 362.25 361.256C336.25 385.523 310.25 424.956 308.083 486.49C304.183 609.123 400.383 715.723 400.383 715.723C400.383 715.723 343.183 505.99 451.083 474.79C558.983 443.59 588.883 335.69 660.383 335.69C731.883 335.69 698.517 255.09 744.45 321.39Z" fill="#423232"/>
<path d="M839.35 376.423C839.35 376.423 917.783 474.356 976.716 468.723C1035.65 463.09 1101.95 336.556 939.883 293.223C777.816 249.89 839.35 376.423 839.35 376.423Z" fill="#423232"/>
<path d="M680.75 363.422C680.75 363.422 732.317 490.822 869.25 505.989C1006.62 521.589 1062.08 270.255 852.35 246.422C642.616 222.589 680.75 363.422 680.75 363.422Z" fill="#423232"/>
<path d="M571.116 303.623C571.116 303.623 603.183 449.223 670.783 455.723C738.383 462.223 720.183 274.157 631.783 261.157C543.383 248.157 571.116 303.623 571.116 303.623Z" fill="#423232"/>
<path d="M877.818 658.313C866.118 644.013 850.951 634.046 832.751 633.613C813.684 633.179 783.784 637.513 753.884 661.346C714.884 692.546 636.884 687.779 606.118 684.746C597.451 683.879 589.218 688.213 585.318 696.013C576.651 713.346 564.951 749.313 570.585 807.379C577.951 886.679 642.518 958.613 733.518 952.546C853.118 945.179 922.884 848.979 927.218 720.279C926.351 684.746 905.118 692.113 877.818 658.313Z" fill="white"/>
<path d="M717.919 684.748C717.919 684.748 900.352 767.081 915.952 707.281" stroke="#EDF3F4" stroke-width="13.4786" stroke-miterlimit="10" stroke-linecap="round" stroke-linejoin="round"/>
<path d="M644.252 743.682C644.252 743.682 828.418 848.982 911.185 791.782" stroke="#EDF3F4" stroke-width="13.4786" stroke-miterlimit="10" stroke-linecap="round" stroke-linejoin="round"/>
<path d="M637.752 818.215C637.752 818.215 732.652 903.582 869.152 872.815" stroke="#EDF3F4" stroke-width="13.4786" stroke-miterlimit="10" stroke-linecap="round" stroke-linejoin="round"/>
<path d="M662.886 692.114C662.886 692.114 644.686 717.248 637.32 783.548C628.653 863.281 666.353 929.581 666.353 929.581" stroke="#EDF3F4" stroke-width="13.4786" stroke-miterlimit="10" stroke-linecap="round" stroke-linejoin="round"/>
<path d="M602.652 695.581C602.652 695.581 552.819 660.914 517.719 601.114" stroke="white" stroke-width="13.4786" stroke-miterlimit="10" stroke-linecap="round" stroke-linejoin="round"/>
<path d="M492.152 735.88C502.119 768.38 526.819 821.247 589.219 868.914" stroke="white" stroke-width="13.4786" stroke-miterlimit="10" stroke-linecap="round" stroke-linejoin="round"/>
</g>
</svg>
