<svg width="1300" height="1300" viewBox="0 0 1300 1300" fill="none" xmlns="http://www.w3.org/2000/svg">
<mask id="mask0_32_1394" style="mask-type:alpha" maskUnits="userSpaceOnUse" x="0" y="0" width="1300" height="1300">
<path d="M650 1300C290.71 1300 0 1008.86 0 650C0 290.71 291.141 0 650 0C1009.29 0 1300 291.141 1300 650C1300.43 1009.29 1009.29 1300 650 1300Z" fill="#F7C0B5"/>
</mask>
<g mask="url(#mask0_32_1394)">
<path d="M1015.73 1197.33C1012.7 1199.5 1009.23 1201.67 1006.2 1203.83C1002.73 1206 999.695 1208.17 996.228 1209.9C993.195 1211.63 990.595 1213.37 987.562 1215.1C987.128 1215.53 986.695 1215.53 986.262 1215.97C976.295 1222.03 965.895 1227.67 955.495 1232.87C952.462 1234.6 948.995 1236.33 945.962 1237.63C945.962 1237.63 945.528 1238.07 945.095 1238.07C941.628 1239.8 938.162 1241.53 934.695 1243.27C927.762 1246.73 920.395 1249.77 913.462 1252.8C909.995 1254.53 906.095 1255.83 902.628 1257.13C899.162 1258.43 895.262 1260.17 891.795 1261.47C888.328 1262.77 884.428 1264.5 880.962 1265.8C880.962 1265.8 880.962 1265.8 880.528 1265.8C877.062 1267.1 873.162 1268.4 869.695 1269.7C861.895 1272.3 853.662 1274.9 845.862 1277.5C843.262 1278.37 840.228 1279.23 837.628 1280.1C829.395 1282.7 821.162 1284.87 812.928 1286.6C809.895 1287.47 806.862 1287.9 803.395 1288.77C795.595 1290.5 787.362 1292.23 779.562 1293.97C777.828 1294.4 776.528 1294.4 774.795 1294.83C772.195 1295.27 769.162 1295.7 766.562 1296.13C762.662 1296.57 759.195 1297.43 755.295 1297.87C753.562 1298.3 751.828 1298.3 750.095 1298.73C747.928 1299.17 745.328 1299.6 742.728 1299.6C735.795 1300.47 728.428 1301.33 721.495 1302.2C719.328 1302.63 716.728 1302.63 714.562 1303.07H714.128C711.095 1303.5 708.062 1303.5 705.028 1303.93C701.995 1304.37 698.962 1304.37 695.928 1304.37C694.195 1304.37 692.028 1304.8 690.295 1304.8C686.828 1304.8 683.795 1305.23 680.762 1305.23C676.428 1305.23 672.528 1305.67 668.195 1305.67C663.862 1305.67 659.962 1305.67 655.628 1305.67C652.595 1305.67 649.562 1305.67 646.528 1305.67C464.095 1303.07 299.428 1225.5 182.428 1102.43C182.428 1102.43 182.428 1102 181.995 1102C195.428 1075.57 245.262 1027.9 297.262 988.466C363.128 938.633 456.295 907.866 456.295 907.866C456.295 907.866 517.395 897.899 744.028 945.133C916.928 981.533 990.595 1129.3 1015.73 1197.33Z" fill="#FEE4BF"/>
<path d="M792.127 1065.17C783.027 1109.8 724.094 1136.23 624.86 1096.37C503.094 1046.97 456.294 907.866 456.294 907.866C449.794 808.199 434.627 722.832 434.627 722.832C575.46 710.699 741.86 875.366 741.86 875.366L760.927 956.832C762.66 963.766 766.127 969.832 771.327 974.166C780.427 989.766 798.194 1036.57 792.127 1065.17Z" fill="#FEE4BF"/>
<path d="M771.328 974.599C688.562 970.266 627.462 958.133 562.028 840.699C617.495 889.666 682.928 908.299 751.828 916.966L760.928 956.832C762.662 964.199 766.128 970.266 771.328 974.599Z" fill="#EFBDA5"/>
<path d="M942.497 452.432C950.297 488.832 954.197 518.299 932.964 615.366C911.73 712.432 952.464 809.499 850.197 898.332C781.297 958.132 660.83 969.399 564.63 903.966C532.13 881.866 502.23 851.099 477.964 810.799C458.897 779.166 436.797 749.266 412.097 721.966C377.864 684.699 336.697 609.732 357.064 477.132C389.997 261.332 603.63 236.632 729.73 260.466C855.83 284.299 921.264 356.232 942.497 452.432Z" fill="#FEE4BF"/>
<path d="M527.795 621.867C527.795 621.867 514.362 556.867 451.095 564.667C396.495 571.6 377.428 702.467 501.362 738.867" fill="#FEE4BF"/>
<path d="M497.459 679.5C497.459 679.5 481.859 669.533 483.593 652.2C486.193 631.833 483.593 619.266 474.059 615.366C450.226 605.4 445.459 633.133 446.326 636.6" stroke="#423232" stroke-width="13.4786" stroke-miterlimit="10" stroke-linecap="round" stroke-linejoin="round"/>
<path d="M828.094 721.533C828.094 721.533 844.561 722.4 860.161 703.767C868.828 693.367 876.194 680.366 871.428 676.466C866.661 672.133 788.228 684.267 783.028 694.667C777.828 705.067 808.161 721.533 828.094 721.533Z" fill="#EFBDA5"/>
<path d="M841.093 575.932C841.093 575.932 841.96 617.098 868.393 663.032C880.093 683.398 862.326 716.765 823.76 722.398" stroke="#423232" stroke-width="13.4786" stroke-miterlimit="10" stroke-linecap="round" stroke-linejoin="round"/>
<path opacity="0.42" d="M606.227 743.632C630.877 743.632 650.86 727.142 650.86 706.799C650.86 686.457 630.877 669.966 606.227 669.966C581.577 669.966 561.594 686.457 561.594 706.799C561.594 727.142 581.577 743.632 606.227 743.632Z" fill="#F2A5B2"/>
<path opacity="0.42" d="M926.028 670.833C924.728 695.099 925.161 718.933 923.428 742.766C904.361 738.433 890.494 724.133 890.494 707.233C890.494 689.033 905.661 674.299 926.028 670.833Z" fill="#F2A5B2"/>
<path d="M780.521 936C780.521 936 715.521 955.066 625.388 925.6C535.255 896.133 447.288 818.566 447.288 818.566C447.288 818.566 418.688 819 407.855 840.666C397.455 862.333 397.888 906.966 381.421 919.1C377.521 921.7 366.688 924.733 350.655 929.066C324.655 936.433 286.088 947.7 247.088 969.8C218.055 986.266 188.588 1008.37 163.888 1038.7C152.621 1052.57 142.655 1068.17 133.988 1085.93C65.5214 1225.03 94.988 1420.03 94.988 1420.03H1154.05C1154.05 1420.03 1123.29 1179.1 1056.99 1099.8C990.688 1020.5 864.155 956.366 826.888 939.466V914.333C827.322 914.333 804.355 929.5 780.521 936Z" fill="#48D89E"/>
<mask id="mask1_32_1394" style="mask-type:alpha" maskUnits="userSpaceOnUse" x="88" y="818" width="1067" height="603">
<path d="M780.521 936C780.521 936 715.521 955.066 625.388 925.6C535.255 896.133 447.288 818.566 447.288 818.566C447.288 818.566 418.688 819 407.855 840.666C397.455 862.333 397.888 906.966 381.421 919.1C377.521 921.7 366.688 924.733 350.655 929.066C324.655 936.433 286.088 947.7 247.088 969.8C218.055 986.266 188.588 1008.37 163.888 1038.7C152.621 1052.57 142.655 1068.17 133.988 1085.93C65.5214 1225.03 94.988 1420.03 94.988 1420.03H1154.05C1154.05 1420.03 1123.29 1179.1 1056.99 1099.8C990.688 1020.5 864.155 956.366 826.888 939.466V914.333C827.322 914.333 804.355 929.5 780.521 936Z" fill="#48D89E"/>
</mask>
<g mask="url(#mask1_32_1394)">
<path d="M265.72 1101.53C291.089 1101.53 311.654 1080.97 311.654 1055.6C311.654 1030.23 291.089 1009.67 265.72 1009.67C240.352 1009.67 219.787 1030.23 219.787 1055.6C219.787 1080.97 240.352 1101.53 265.72 1101.53Z" fill="#FCED7E"/>
<path d="M527.022 1080.3C552.391 1080.3 572.956 1059.73 572.956 1034.37C572.956 1009 552.391 988.433 527.022 988.433C501.654 988.433 481.089 1009 481.089 1034.37C481.089 1059.73 501.654 1080.3 527.022 1080.3Z" fill="#FCED7E"/>
<path d="M724.62 982.799C749.988 982.799 770.553 962.234 770.553 936.866C770.553 911.498 749.988 890.933 724.62 890.933C699.252 890.933 678.687 911.498 678.687 936.866C678.687 962.234 699.252 982.799 724.62 982.799Z" fill="#FCED7E"/>
<path d="M445.553 1305.2C470.922 1305.2 491.487 1284.63 491.487 1259.27C491.487 1233.9 470.922 1213.33 445.553 1213.33C420.185 1213.33 399.62 1233.9 399.62 1259.27C399.62 1284.63 420.185 1305.2 445.553 1305.2Z" fill="#FCED7E"/>
<path d="M980.288 1281.8C1005.66 1281.8 1026.22 1261.23 1026.22 1235.87C1026.22 1210.5 1005.66 1189.93 980.288 1189.93C954.92 1189.93 934.354 1210.5 934.354 1235.87C934.354 1261.23 954.92 1281.8 980.288 1281.8Z" fill="#FCED7E"/>
<path d="M727.222 1244.53C752.591 1244.53 773.156 1223.97 773.156 1198.6C773.156 1173.23 752.591 1152.67 727.222 1152.67C701.854 1152.67 681.289 1173.23 681.289 1198.6C681.289 1223.97 701.854 1244.53 727.222 1244.53Z" fill="#FCED7E"/>
<path d="M944.753 1058.2C970.121 1058.2 990.686 1037.63 990.686 1012.27C990.686 986.898 970.121 966.333 944.753 966.333C919.384 966.333 898.819 986.898 898.819 1012.27C898.819 1037.63 919.384 1058.2 944.753 1058.2Z" fill="#FCED7E"/>
</g>
<path d="M827.321 939.467C827.321 939.467 832.955 978.467 822.988 1000.57C806.955 1036.97 695.588 1078.57 560.821 1030.03C453.788 991.467 401.355 938.167 400.055 929.934" stroke="#329369" stroke-width="13.4786" stroke-miterlimit="10" stroke-linecap="round" stroke-linejoin="round"/>
<path d="M481.086 862.767C478.92 865.367 476.753 868.833 475.02 873.167C468.953 887.9 467.22 918.667 467.22 918.667" stroke="#329369" stroke-width="13.4786" stroke-miterlimit="10" stroke-linecap="round" stroke-linejoin="round"/>
<path d="M554.322 907.399C552.588 910.866 550.855 914.766 549.988 919.099C547.822 930.366 545.222 965.899 545.222 965.899" stroke="#329369" stroke-width="13.4786" stroke-miterlimit="10" stroke-linecap="round" stroke-linejoin="round"/>
<path d="M627.986 937.732C627.119 941.199 626.252 945.532 625.819 950.732C624.952 956.799 625.386 993.632 625.386 993.632" stroke="#329369" stroke-width="13.4786" stroke-miterlimit="10" stroke-linecap="round" stroke-linejoin="round"/>
<path d="M706.855 955.066C707.722 965.033 708.155 978.899 706.855 995.799" stroke="#329369" stroke-width="13.4786" stroke-miterlimit="10" stroke-linecap="round" stroke-linejoin="round"/>
<path d="M773.156 951.6C774.456 959.833 775.756 971.1 776.19 985.4" stroke="#329369" stroke-width="13.4786" stroke-miterlimit="10" stroke-linecap="round" stroke-linejoin="round"/>
<path d="M433.852 820.299C423.452 824.199 409.586 834.599 404.386 864.933" stroke="#329369" stroke-width="13.4786" stroke-miterlimit="10" stroke-linecap="round" stroke-linejoin="round"/>
<path d="M878.454 965.034C856.354 952.901 838.154 944.234 827.32 939.467V914.334" stroke="#329369" stroke-width="13.4786" stroke-miterlimit="10" stroke-linecap="round" stroke-linejoin="round"/>
<path d="M683.942 619.44C673.542 619.006 665.742 610.34 666.609 599.94L667.042 587.806C667.475 577.406 676.142 569.606 686.542 570.473C696.942 570.906 704.742 579.573 703.875 589.973L703.442 602.106C703.009 612.073 694.342 619.873 683.942 619.44Z" fill="#423232"/>
<path d="M866.375 625.939C856.842 625.506 849.475 617.272 849.909 607.739L850.342 596.472C850.775 586.939 859.009 579.572 868.542 580.005C878.075 580.439 885.442 588.672 885.009 598.205L884.575 609.472C884.142 619.005 875.909 626.372 866.375 625.939Z" fill="#423232"/>
<path d="M725.974 594.305C725.974 594.305 714.708 578.272 695.208 575.238C679.174 572.638 661.408 580.438 658.808 589.538" stroke="#423232" stroke-width="13.4786" stroke-miterlimit="10" stroke-linecap="round" stroke-linejoin="round"/>
<path d="M853.809 598.207C853.809 598.207 853.809 584.34 873.742 584.34C890.209 584.34 897.142 599.507 897.142 599.507" stroke="#423232" stroke-width="13.4786" stroke-miterlimit="10" stroke-linecap="round" stroke-linejoin="round"/>
<path d="M743.744 524.54C752.844 527.573 761.944 519.34 760.21 509.373C759.344 504.173 757.177 498.973 752.844 495.073C739.844 483.373 686.11 472.973 653.61 488.14C625.01 502.006 702.144 510.673 743.744 524.54Z" fill="#423232"/>
<path d="M873.308 531.473C865.941 534.073 858.141 526.273 859.441 517.173C859.874 512.406 861.608 507.64 865.074 504.173C875.474 493.773 911.008 485.54 933.541 501.573C953.041 515.006 907.108 518.906 873.308 531.473Z" fill="#423232"/>
<path d="M804.159 772.845C804.608 780.034 799.216 792.614 789.332 801.599C738.563 770.599 715.649 786.773 715.649 786.773C697.678 759.367 701.721 722.076 745.302 750.381C775.853 769.7 794.274 772.845 804.159 772.845Z" fill="#423232"/>
<path d="M789.333 801.6C778.55 811.035 762.376 816.876 740.361 807.89C730.028 803.847 721.94 795.759 715.65 786.774C715.65 786.774 738.564 770.599 789.333 801.6Z" fill="#FE9DAB"/>
<path d="M812.694 771.048C812.694 771.048 793.824 781.382 745.301 750.381C687.343 713.09 699.025 791.266 739.91 807.889C782.592 825.412 804.607 787.222 804.158 772.845" stroke="#423232" stroke-width="13.4786" stroke-miterlimit="10" stroke-linecap="round" stroke-linejoin="round"/>
<path d="M715.65 786.774C715.65 786.774 738.564 770.599 789.333 801.6" stroke="#423232" stroke-width="13.4786" stroke-miterlimit="10" stroke-linecap="round" stroke-linejoin="round"/>
<path d="M1052.43 935.09C1028.17 881.356 1009.53 888.723 1026.43 840.19C1043.33 792.09 1021.67 757.856 977.033 712.356C934.566 669.023 930.233 621.79 931.533 614.856C927.633 633.056 925.899 651.69 925.033 669.89C923.733 694.156 924.166 717.99 922.433 741.823C918.966 795.123 906.399 847.557 849.199 896.957C824.066 918.623 791.999 934.223 756.466 941.59C746.933 970.623 761.233 991.423 792.433 994.89C823.633 998.357 836.633 1045.16 907.266 1067.26C1013 1101.49 1076.7 988.823 1052.43 935.09Z" fill="#423232"/>
<path d="M854.835 410.756C863.935 415.523 871.735 411.19 876.501 401.656C926.768 393.856 938.468 494.39 940.201 500.456C941.935 506.956 942.801 525.156 939.335 574.99C937.168 602.723 1098.37 405.99 951.035 322.79C961.868 306.756 954.068 227.023 863.501 207.523C831.001 200.59 788.535 230.923 735.235 219.223C526.801 172.856 310.568 217.056 327.468 492.223C331.368 552.456 335.268 617.456 233.001 660.79C114.268 711.056 120.334 842.356 203.968 869.223C238.635 880.49 124.234 958.489 190.968 1027.82C225.635 1064.22 287.601 990.556 350.435 1030.42C445.335 1090.66 492.568 1063.36 511.201 1039.52C549.335 990.99 502.101 893.489 502.101 893.489C502.101 893.489 520.735 863.59 526.801 847.556C556.268 768.69 486.068 733.156 486.068 733.156C377.735 691.556 397.235 570.656 450.101 563.723C505.568 556.79 522.901 606.19 525.935 618.323C525.935 618.323 574.901 685.923 669.368 531.656C762.968 377.39 814.101 388.656 854.835 410.756Z" fill="#423232"/>
<path d="M467.543 705.466V779.133" stroke="#FFDE55" stroke-width="13.4786" stroke-miterlimit="10" stroke-linecap="round" stroke-linejoin="round"/>
<path d="M526.042 877.935C514.342 889.635 498.309 897.002 480.109 897.002C445.009 897.002 415.976 868.402 415.976 832.868C415.976 797.768 444.576 768.735 480.109 768.735C497.876 768.735 514.342 776.102 526.042 787.802C518.242 783.468 509.576 780.868 500.042 780.868C471.442 780.868 448.042 804.268 448.042 832.868C448.042 861.468 471.442 884.868 500.042 884.868C509.576 885.302 518.242 882.701 526.042 877.935Z" fill="#FFDE55"/>
<path d="M467.543 858.867C481.663 858.867 493.11 847.421 493.11 833.301C493.11 819.18 481.663 807.734 467.543 807.734C453.423 807.734 441.977 819.18 441.977 833.301C441.977 847.421 453.423 858.867 467.543 858.867Z" fill="#FF6B57"/>
<path d="M961.979 788.667C954.179 784.334 945.512 781.734 935.979 781.734C929.045 781.734 922.979 783.034 916.912 785.634C917.779 780.434 919.079 775.234 919.512 770.034C936.412 770.467 951.145 777.4 961.979 788.667Z" fill="#FFDE55"/>
<path d="M962.409 877.933C950.709 889.633 934.676 897 916.476 897C898.276 897 881.376 889.2 869.676 876.633C876.609 868.833 882.676 861.033 888.309 853.233C896.109 871.866 914.742 884.433 935.976 884.433C945.509 885.3 954.609 882.7 962.409 877.933Z" fill="#FFDE55"/>
<path d="M929.477 833.301C929.477 847.601 918.211 858.868 903.911 858.868C898.277 858.868 893.077 857.135 888.744 853.668C898.711 838.935 906.078 823.768 910.844 809.035C921.244 811.635 929.477 821.601 929.477 833.301Z" fill="#FF6B57"/>
</g>
</svg>
